<svg viewBox="12.477272727272748 156.25 1341.306818181818 2031.2499999999998" xmlns="http://www.w3.org/2000/svg" overflow="visible" xmlns:xlink="http://www.w3.org/1999/xlink" width="1341.306818181818px" height="2031.2499999999998px"><g id="Master/Character/Sitting" stroke="none" stroke-width="1" fill="none" fill-rule="evenodd"><g id="Sitting" transform="translate(-81.000000, 637.000000) scale(1 1)"><g id="Sitting/One Leg Up 2" stroke="none" stroke-width="1" fill="none" fill-rule="evenodd"><path d="M822.1619,829.317267 C824.4009,852.677317 819.8229,874.985174 808.9179,893.844835 L805.3699,899.980653 L812.1229,902.342175 C824.4129,906.640597 838.0799,908.730204 853.9059,908.730204 C870.1929,908.730204 887.1299,906.462276 900.7389,904.638673 L909.4519,903.472198 L905.1719,895.9039 C901.7299,889.821283 901.0929,882.450025 900.4179,874.646265 C900.2359,872.549762 900.0489,870.382325 899.8029,868.237547 C886.9079,752.977166 870.6079,636.212386 854.8449,523.292837 C850.6959,493.579241 846.4069,462.85286 842.2459,432.62893 L830.3099,433.089018 C827.0989,489.032548 823.9829,545.921869 820.9699,600.938327 C819.6449,625.13087 818.3189,649.324397 816.9829,673.513984 C812.2199,734.671186 813.8649,784.19122 822.1619,829.317267 M827.0329,1520.4904 C809.5039,1520.4904 791.9409,1518.66483 774.8339,1515.06491 C721.3009,1503.82773 672.6659,1477.31505 631.2819,1453.34713 C629.1689,1452.14913 627.0249,1450.95113 624.8239,1449.71963 C608.6219,1440.65481 588.4589,1429.37626 575.8229,1415.61697 C561.9609,1400.52274 559.5749,1385.48269 568.3159,1368.28408 L569.6989,1365.56296 L568.2539,1362.87238 C559.2029,1346.02647 559.8759,1325.1836 569.8899,1312.18883 L578.3059,1301.26888 L564.4689,1302.73683 C550.5169,1304.21758 536.4549,1306.22345 522.8549,1308.1633 C507.7659,1310.31596 492.1609,1312.54153 476.7929,1314.03115 L472.5219,1314.44592 L471.5399,1318.56109 C470.9929,1320.85168 470.3179,1322.24278 465.5769,1322.24278 C461.4659,1322.24278 455.9409,1321.03887 450.0939,1319.76501 C442.8369,1318.18475 434.6109,1316.39267 426.6789,1316.39267 C423.1899,1316.39267 420.0519,1316.72468 417.0839,1317.41038 L415.3569,1317.80742 L414.1279,1319.0665 C413.3419,1319.87141 412.0039,1320.3709 410.6369,1320.3709 C409.6029,1320.3709 408.6439,1320.08323 408.0029,1319.58176 L406.0649,1318.06554 L403.6059,1318.33548 C360.7629,1323.03981 323.8199,1331.29577 290.6699,1343.57234 L290.5199,1343.62849 L289.8009,1343.93883 C277.8139,1349.11211 265.4209,1354.46174 254.1339,1354.46174 C245.8829,1354.46174 239.1829,1351.65491 233.0469,1345.62845 L231.3129,1343.92701 L228.8669,1343.90336 C204.0489,1343.6748 192.7089,1314.73458 191.1409,1295.33799 L190.9439,1292.89568 L189.0519,1291.30754 C145.7999,1255.01084 120.2659,1205.16077 110.9879,1138.90713 C102.5379,1078.55878 109.0259,1014.9307 116.4869,960.647226 C133.7459,819.970686 151.7469,693.86031 197.5049,574.253232 L199.6429,568.662229 L193.9459,566.614985 C174.1829,559.513672 159.0789,551.040962 147.7699,540.712138 L146.9869,539.994913 L146.0009,539.589996 C129.7929,532.931038 121.8549,508.350327 119.8079,500.976114 L119.6439,500.381054 L119.3579,499.833283 C116.0509,493.489588 115.2879,484.665162 117.2659,475.622022 L117.4779,474.64766 L117.3549,473.657535 C116.2869,465.071528 119.8319,456.095381 123.5849,446.591168 C125.2999,442.249397 127.0719,437.761816 128.3669,433.291969 C132.8189,420.517881 137.2659,407.518183 141.5679,394.94409 C151.2199,366.733907 161.1989,337.563155 171.8299,309.186473 L173.2839,305.305775 L170.0809,302.63096 C164.6129,298.063578 166.4389,292.687348 174.3239,279.832474 C176.1869,276.796091 177.9489,273.923251 179.2889,271.092775 C189.3959,253.628156 200.2279,236.863027 211.4899,221.257478 L211.7219,220.937288 L211.9069,220.590498 C269.6959,112.661967 372.2029,53.2239364 500.5439,53.2239364 L503.1599,53.2288624 L504.6059,52.3589319 C528.6599,37.8942427 545.8309,13.0751139 557.0999,-23.5151705 L557.4599,-24.6816459 L557.3209,-25.8934405 C556.9349,-29.2657761 556.5119,-33.6873484 556.6569,-37.9778893 C557.0239,-48.8436472 561.2829,-58.539974 568.3409,-64.5812132 C581.7319,-76.0430163 602.0609,-77.0026 621.7359,-77.0026 L624.5609,-77.0026 C649.7159,-76.9257545 667.4749,-72.5583681 680.4509,-63.2511948 C695.5269,-52.4376525 703.8589,-34.9818997 705.9239,-9.88691518 C706.5409,-2.37772972 706.5199,5.40140021 706.5009,12.9243784 L706.4959,15.0238371 L706.7489,15.8573153 C708.5569,21.821709 710.6749,27.5526106 713.0429,32.8923882 L715.4789,38.3858569 L721.0189,35.9090671 C724.6019,34.308119 729.1439,33.4844927 734.9079,33.3918841 C736.5699,33.3534613 738.1909,33.3357277 739.8259,33.3357277 C753.2089,33.3357277 767.5249,34.5573743 781.3709,35.7386277 C791.8029,36.6292474 802.5909,37.5504083 813.0329,37.9592658 L813.1759,37.965177 C813.1759,37.965177 814.6179,37.9563102 815.2649,37.9563102 C840.6439,37.9563102 859.0419,41.9473507 873.1629,50.5175952 C888.3679,59.7439823 899.3009,74.5525058 907.5679,97.1204553 C951.9099,226.480017 970.1399,365.817672 986.2199,488.747826 C995.3409,553.03402 998.1149,618.93791 1000.7979,682.671407 C1003.6309,749.942753 1006.5589,819.504687 1016.9279,887.50311 L1017.7469,892.878355 L1023.2529,892.522698 C1047.4839,890.959187 1073.6689,887.590793 1101.3909,884.024373 C1143.5109,878.606764 1187.0649,873.003939 1229.1689,873.003939 C1288.0389,873.003939 1332.6749,884.587907 1365.6059,908.411985 C1388.5639,930.045966 1400.4409,959.336912 1399.9529,993.141054 C1399.2629,1040.90349 1373.9999,1093.70818 1335.5929,1127.667 L1335.4479,1127.8 C1286.9009,1173.66298 1198.2849,1213.44136 1072.0619,1246.03076 C955.9919,1275.99853 835.9319,1292.28486 774.6949,1299.3241 L759.5389,1301.0679 L771.8409,1309.96129 C776.8199,1313.56219 781.3629,1316.73158 785.7299,1319.65269 L788.5469,1321.53541 L791.6329,1320.12066 C800.4329,1316.08529 806.0219,1315.23802 809.1629,1315.23802 C811.9499,1315.23802 815.3119,1315.84293 815.4969,1318.72759 C815.6179,1320.61622 814.2739,1323.42009 811.4369,1323.77477 L796.3729,1325.65452 L808.6729,1334.42673 C816.8889,1340.2867 829.1469,1347.3486 843.3419,1355.52772 C889.7809,1382.28474 959.9609,1422.72124 947.8909,1458.23076 L947.0989,1460.56371 L948.2209,1462.76366 C951.4639,1469.12016 951.7409,1475.0215 949.0649,1480.80364 C943.3349,1493.19547 925.4099,1502.60214 910.1869,1506.42866 L909.9259,1506.49467 L909.6709,1506.58333 C883.1829,1515.81169 855.3789,1520.4904 827.0329,1520.4904" id="Skin" fill="#edb98a"/><path d="M707.455609,1253.82117 C707.925609,1253.09224 708.345609,1252.0678 708.574609,1251.16157 C711.786993,1255.73321 763.178061,1300.77235 814,1339 C861.203945,1374.50624 915.345151,1401.33195 936.364085,1430.933 C944.352102,1442.18256 948.411739,1475.15431 946.875609,1480.69184 C944.586478,1483.59556 930.846145,1491.56361 905.654609,1504.59597 C897.116147,1506.9055 828.585609,1525.49109 798.144609,1519.16617 C786.945609,1517.46304 706.2,1491.61982 696,1487 L609.230637,1436.64847 C607.33472,1435.81662 605.448952,1434.98953 603.574609,1434.16778 L601.037781,1433.15734 C581.686959,1425.41073 557,1409 562.054576,1385.34463 C568,1361 557.333669,1355.67954 559.776271,1339.64172 C561.890191,1325.76198 566.502941,1311.63077 573.875609,1298.1577 C602.355609,1330.19012 638.505609,1327.39262 656.715609,1287.5784 L657.133201,1286.76658 L657.54442,1285.95263 C663.498089,1274.07418 669.127481,1258.98355 683.225609,1254.31369 C691.005609,1249.05359 700.955609,1247.9602 707.455609,1253.82117 Z M447.201338,1164.47908 L448.963701,1168.52621 C457.531432,1188.12597 475.719509,1228.85417 482.945609,1244.92229 C481.335609,1241.94748 479.495609,1239.09087 477.425609,1236.39088 C471.376152,1228.50576 478.473332,1252.33269 478.528786,1277.20392 C478.580216,1300.27063 471.455909,1324.23561 469.814609,1324.63376 C467.795609,1325.12627 439.617377,1311.27442 413.201338,1315.47908 C391.873703,1318.87382 359.5369,1322.69975 327.411743,1331.47009 C301.299474,1338.59888 275.327037,1350.69094 255.520339,1354.7997 C239.428206,1358.1379 236.282732,1340.7012 225.768617,1341.77955 C216.296176,1342.75105 214.771193,1342.51727 212.425609,1340.55895 C199.275609,1329.68513 186.845609,1286.71232 188.085609,1270.56855 C199,1185 367.471338,1157.41636 447.201338,1164.47908 Z" id="Shoes" fill="#FFF"/><path d="M729.549898,28 L749.693067,28.710686 L751.466661,28.782726 C758.182901,29.0721063 765.156837,29.5605583 774.985715,30.3775441 L777.667049,30.6024878 L797.073548,33.6895331 C802.99207,34.6256999 808.54506,35.4984197 813.905855,36.3344156 L824.450252,37.9696321 L836.943988,39.8838157 L838.319592,40.1023257 C857.028326,43.1240688 869.841061,47.6729433 880.428079,56.8942046 L880.893721,57.3040664 L881.097202,57.485057 L881.28702,57.6803284 C897.456864,74.314709 909.658025,100.470285 919.598615,136.171525 L920.246853,138.519399 L920.831528,140.672729 C924.994094,156.129812 935.610811,209.846027 952.681677,301.821374 L943.900824,302.484628 C942.826407,302.565783 941.762479,302.661469 940.709533,302.771695 C909.156996,306.074714 872.189516,324.196445 847.953158,347.563512 C846.501067,348.963521 845.048002,350.428559 843.59791,351.953774 L842.728243,352.876084 L834.915346,361.229073 C816.920203,637.856611 809.277528,786.030211 811.98732,805.749873 L812.200346,807.275073 L812.44501,808.386764 C822.305966,853.711734 817.868474,888.266463 798.57442,910.237695 L797.985204,910.899636 L797.374584,911.567134 C776.945635,933.59358 742.251136,940.87955 694.596428,933.391383 C693.941115,933.288411 693.294181,933.18436 692.655804,933.079218 L684.75979,931.749162 L685.637412,923.353444 L685.779901,921.959394 C692.029368,860.327373 690.897277,806.403073 680.385495,758.656476 C668.232128,703.453472 643.791779,658.572358 604.940783,624.975682 L603.759067,623.961056 L603.591346,623.819073 L600.619022,627.844928 L592.567222,620.989365 C541.349947,577.467871 451.986437,506.114516 324.476692,406.929299 L355.147346,362.945073 L355.094617,362.892155 C354.790774,362.594095 354.369768,362.234065 353.822428,361.810806 L353.322126,361.432498 L353.07646,361.252109 C350.208611,359.164097 227.879594,304.34894 191.502099,298.264806 L189.742342,297.974368 L187.983466,297.691844 L186.561686,297.469058 L184.325905,297.127518 L174.995976,295.721934 L178.470132,286.94962 C178.935157,285.775422 179.406009,284.594984 179.882892,283.407683 C187.858087,263.551744 195.831046,259.984344 204.467136,243.61955 L205.179346,242.273073 L206.596286,239.407299 C225.818096,201.004145 252.569924,145.292257 310,108 C387,58 476.051784,50.4917822 476.564852,50.7705299 C485.219598,82.1258662 498.697981,108.869023 517,131 C534.842134,152.57488 568.606784,171.21719 581.598782,175.641394 L582.60002,175.97886 L583.625328,176.317253 C618.237993,187.618897 656.009161,187.58074 687.742711,175.870803 L688.521346,175.579073 L689.008546,175.365894 C707.499155,167.122079 720.656369,152.68212 729.093771,132.780485 L729.386186,132.084028 L729.674777,131.383147 C739.14778,108.150473 741.997062,78.6401632 739.307316,47.0117073 L739.211243,45.9075364 L739.066344,44.3275944 L739.058346,44.2330727 L729.549898,28 Z M194.885346,566.443073 L197.794014,567.376998 L199.776336,568.003188 C209.968603,571.205173 223.565654,576.942542 240.731871,581.633211 L258.80597,586.565814 C263.743983,587.922611 267.553848,588.985492 271.293863,590.051868 L276.892147,591.664858 L279.366388,592.393648 L289.021368,595.288848 L284.011327,603.572983 L282.014852,606.883691 C226.547799,699.129186 180.454749,798.040989 144.291673,901.827883 C141.532019,909.748003 138.820182,917.725299 136.158801,925.750155 L134.568049,930.570698 L120,927.302798 C121.294636,916.92198 122.61548,906.823857 123.974216,896.942657 L124.622764,892.262622 C126.698727,877.396011 128.986955,862.077758 131.51863,846.025635 L132.316346,840.986073 L132.811167,837.401716 L133.138233,835.071878 C138.392938,797.907976 144.73258,765.939644 158.656938,702.685384 L165.288593,672.617961 C170.440564,649.137059 180.306148,613.745429 194.885346,566.443073 Z" id="Top" fill="#FFCF77"/><path d="M914.9835,901.970627 C918.0935,885.008283 912.1945,867.494318 911.1735,850.413769 C895.7335,728.583358 878.6845,606.833719 856.0935,486.068133 C850.5535,457.167136 844.9545,428.384343 838.5345,399.640951 C839.5045,382.23534 840.3545,364.829729 840.9145,347.414268 C872.2645,327.70367 907.6145,314.947435 944.1735,308.515141 C954.0535,363.559031 963.9235,418.56352 970.7745,474.099929 C992.1245,611.561899 979.9445,751.437211 1000.6545,888.741575 C971.9235,891.962647 943.4145,896.730228 914.9835,901.970627 M970.1275,1009.06192 C948.5225,1014.80666 926.8975,1020.30317 905.1195,1025.37316 C866.3655,1034.39512 827.6215,1043.45352 788.9665,1052.87934 C769.6725,1057.58388 750.3355,1062.14756 731.0815,1067.00478 C721.9445,1069.31075 712.8665,1071.87185 703.9255,1074.83977 C699.4635,1076.32126 695.1025,1078.02045 690.7425,1079.76594 C686.9225,1081.29373 683.3185,1083.40073 679.1185,1083.10029 C678.8685,1083.08256 678.7125,1082.84024 678.8355,1082.61467 C681.0325,1078.57503 685.5595,1076.66012 689.5565,1074.61813 C693.9635,1072.36634 698.5555,1070.43369 703.1515,1068.58872 C713.3605,1064.49096 723.9935,1061.48167 734.5985,1058.56202 C773.1425,1047.95416 812.0175,1038.4515 850.8525,1028.94293 C889.8725,1019.39004 928.8945,1010.24101 968.4325,1003.00591 C972.4155,1002.27797 974.1385,1007.99513 970.1275,1009.06192 M778.7445,1335.6826 C780.4735,1335.21963 782.2135,1334.79508 783.9445,1334.3922 C811.6645,1357.47162 942.2135,1417.4013 932.2845,1453.19756 C928.7745,1457.64993 920.3745,1458.66353 915.0635,1460.10169 C905.8135,1462.60368 896.4735,1464.77175 887.0445,1466.48571 C856.5635,1472.03148 824.9945,1472.99681 794.5535,1466.67189 C783.3545,1464.96876 773.2445,1460.19133 763.0445,1455.5715 C730.0845,1441.07175 693.7845,1425.05406 660.9835,1410.6735 C619.3135,1394.15442 546.2235,1361.59795 576.2845,1306.6634 C604.7645,1338.69583 640.9145,1335.89931 659.1245,1296.08409 C665.4045,1283.99768 670.8835,1267.70517 685.6335,1262.81938 C693.4145,1257.55928 703.3645,1256.46589 709.8645,1262.32686 C710.3345,1261.59793 710.7545,1260.5735 710.9835,1259.66726 C718.3135,1270.09881 724.6335,1281.08197 733.2235,1290.61714 C730.2745,1290.77474 699.5745,1313.49857 708.6335,1313.50941 C719.5345,1307.89469 730.3645,1303.21576 742.1335,1300.1917 C750.6645,1308.77039 760.0445,1316.75018 769.7645,1324.12712 C760.3245,1330.36241 751.8435,1337.99645 745.0245,1346.2816 C744.4345,1347.01053 745.1545,1347.95616 746.0345,1347.56116 C756.6245,1342.84283 767.5145,1338.69583 778.7445,1335.6826 M919.2645,1490.47039 C813.2335,1538.09793 700.9835,1485.06352 610.5635,1428.52237 C589.6945,1416.86938 562.2445,1400.3503 566.4635,1372.91701 C581.8345,1395.40542 607.1735,1408.2109 631.4945,1419.31227 C672.3545,1437.78172 713.4835,1455.66015 754.4445,1473.90305 C758.3135,1486.7371 776.8135,1487.22962 787.9945,1490.07736 C837.7645,1499.73073 891.2645,1494.93359 938.1045,1475.68596 C935.3935,1483.71402 926.5245,1487.39707 919.2645,1490.47039 M496.2235,1305.01838 C493.6045,1305.3533 490.9835,1305.65767 488.3645,1305.95417 C488.6335,1302.48684 486.5445,1299.0195 483.1845,1297.94581 C484.6945,1290.59645 485.2535,1283.00181 484.4445,1275.54606 C488.8245,1286.86414 502.9635,1283.42636 511.9445,1280.1649 C524.7745,1276.67787 537.5245,1272.92586 550.2045,1268.92563 C555.2045,1278.21551 560.5035,1287.36651 567.0145,1295.77873 C543.3135,1297.88671 519.8345,1302.07312 496.2235,1305.01838 M485.7945,1269.41815 C485.1645,1270.74893 484.2645,1272.15753 484.2445,1273.7533 C483.6045,1268.24694 482.3545,1262.80854 480.4545,1257.5977 C482.2335,1261.53785 484.0145,1265.478 485.7945,1269.41815 M470.8345,1239.89756 C459.1735,1224.69843 437.6245,1212.27711 417.7045,1216.51179 C416.4235,1216.78858 416.3935,1218.84633 417.7045,1219.10342 C444.4635,1222.73821 467.9635,1243.96478 468.8935,1271.40891 C471.0035,1283.83023 462.3645,1296.02499 465.2745,1307.94394 C464.6945,1307.98335 464.1145,1308.0129 463.5445,1308.0523 C463.3345,1308.85018 463.1435,1309.55842 462.8935,1310.17998 C465.7845,1310.66166 466.6335,1315.31202 463.2235,1316.13946 C461.2045,1316.63197 459.0935,1316.88808 456.9445,1316.99644 C446.0345,1314.05118 434.5245,1313.37051 424.0935,1309.01665 C413.7745,1304.45691 416.3545,1291.64157 412.7135,1282.76639 C410.0445,1272.53086 406.9735,1262.33671 403.1045,1252.51589 C402.8245,1251.72687 401.7545,1251.90517 401.6645,1252.70305 C398.9345,1272.29544 399.0245,1292.22275 399.6845,1311.97176 C396.1045,1312.33721 392.5445,1312.74108 388.9735,1313.18434 C389.2045,1307.66715 372.6545,1240.45903 363.9345,1257.70704 C368.3245,1276.66901 368.8545,1296.47811 369.3245,1315.9917 C343.4345,1320.25691 317.9235,1326.6104 293.1045,1335.25903 C275.6145,1340.55853 254.8135,1356.24033 237.8345,1342.06465 C224.6845,1331.19083 220.2545,1312.21802 221.4945,1296.07424 C238.5935,1200.55517 373.6545,1189.39469 453.3835,1196.45741 C460.9145,1213.83347 468.5845,1231.15043 476.3545,1248.42798 C474.7445,1245.45317 472.9045,1242.59656 470.8345,1239.89756 M198.9045,1294.21252 C197.4445,1272.522 201.0935,1245.52212 217.1645,1229.35667 C253.9445,1198.26003 305.4445,1188.47762 351.4045,1177.21963 C372.8135,1172.99382 394.5145,1170.18646 416.3035,1168.78771 C424.0345,1168.17699 433.8545,1169.92937 439.3135,1163.60641 C442.1245,1170.26527 444.9735,1176.91427 447.8245,1183.56327 C356.3245,1171.57537 165.4235,1213.22176 218.8835,1338.56777 C207.5635,1326.30406 200.0635,1311.37187 198.9045,1294.21252 M135.0245,892.711276 C137.5845,874.094069 140.3835,855.496562 143.3435,836.928607 C155.4445,748.117635 180.4545,661.680602 195.3645,573.470502 C221.1735,581.863021 247.6045,588.255914 273.6645,595.811151 C217.1945,689.724617 171.0045,789.449804 135.0245,892.711276 M347.0675,805.323682 C342.1025,781.721201 336.5345,757.669542 334.0035,733.676001 C333.8895,732.597385 335.5485,732.483121 335.8445,733.430727 C339.9915,746.716911 342.8175,760.491675 346.3155,773.962061 C349.8265,787.479729 353.0905,801.05847 356.5475,814.589929 C357.6515,818.911288 358.7585,823.229692 359.8665,827.549081 C360.5305,827.577647 361.1925,827.600303 361.8515,827.615079 C364.3835,827.674181 365.1425,830.852897 363.1055,832.175802 C362.5105,832.561936 361.9145,832.900789 361.3165,833.203196 C371.9025,874.379729 382.7495,915.46367 394.5875,956.324991 C408.3815,1003.9417 423.9115,1050.98413 436.3235,1098.985 C436.6105,1100.09613 436.0965,1100.87135 435.3445,1101.20725 C441.8005,1123.04848 447.2105,1145.17833 453.1125,1167.18702 C454.3415,1171.76942 447.5735,1174.73931 445.2595,1170.44848 C441.6965,1163.83987 440.9095,1154.80904 439.1655,1147.54735 C437.2005,1139.3676 435.3335,1131.16913 433.4695,1122.96672 C430.5045,1109.9199 427.8445,1096.71449 425.6515,1083.48446 C417.4795,1062.95332 410.1615,1042.17494 403.6855,1021.0055 C389.1825,973.593682 375.8045,925.857784 363.8965,877.748557 C360.3805,863.547273 356.9345,849.326288 353.6465,835.070827 C338.6765,835.301325 323.0345,818.365577 307.9915,827.381625 C307.2955,827.799281 306.5905,826.849704 307.1385,826.294143 C313.1355,820.217448 321.4245,819.687498 329.4775,821.19165 C334.7105,822.168807 339.7275,824.022647 344.8505,825.41943 C347.1075,826.035079 349.4245,826.486226 351.7665,826.822123 C350.1515,819.665827 348.5775,812.50165 347.0675,805.323682 M669.5845,1252.21053 C661.9345,1257.21452 655.6945,1264.61116 651.2945,1272.5614 C623.0935,1346.3407 592.9345,1306.821 555.4635,1267.23235 C587.1735,1255.26414 629.1735,1246.3003 653.4945,1222.51165 C657.7045,1233.03185 662.8545,1243.04968 669.5845,1252.21053 M659.4955,1072.24518 C657.0465,1060.10656 655.0285,1047.89308 653.1925,1035.65104 C651.4305,1023.91038 648.6775,1011.33342 649.1265,999.448944 C649.1435,998.975141 649.8115,998.891413 649.9555,999.33862 C653.7675,1011.18566 654.9095,1024.28666 657.3275,1036.48931 C659.6665,1048.28513 662.2365,1060.03662 664.8255,1071.78123 C670.1415,1095.89199 677.6585,1119.63336 682.2085,1143.88892 C682.6965,1146.48745 679.1855,1147.39959 678.2315,1144.9695 C669.1205,1121.77483 664.3995,1096.56477 659.4955,1072.24518 M143.7335,525.302173 C131.4145,512.033719 121.7335,495.091076 123.6045,477.114143 C131.0045,467.244069 133.4545,454.36963 137.7645,442.962897 C154.6145,395.227984 170.2545,347.127622 188.5935,299.905914 C227.6045,311.90367 265.9835,326.295066 302.1845,345.197934 C308.8435,348.596313 315.4345,352.122747 321.9445,355.777236 C328.7645,359.599181 336.2045,366.238333 344.3835,364.337211 C335.4445,376.994941 317.0345,390.164892 313.9235,404.792697 C313.2545,409.422373 316.5345,413.717136 321.5745,412.682847 C400.4635,468.721625 481.9345,523.578358 556.5035,585.999193 C612.3435,630.208657 655.2135,666.064019 674.3645,737.794443 C687.2745,784.258657 687.3135,832.821001 685.4145,880.595315 C685.0445,889.883233 685.0345,899.389829 684.2845,908.737834 C685.4045,915.7316 683.2745,929.96539 675.4145,930.2215 C675.5935,931.915764 676.1545,933.481974 677.0445,934.861026 C676.7945,935.194954 676.5345,935.511151 676.2645,935.836213 C675.8745,933.925241 675.4945,932.024118 675.1335,930.113146 C669.0145,903.004916 668.1945,871.552672 669.2135,842.691076 C669.6435,834.416762 656.9545,834.613769 656.2445,842.691076 C654.3345,864.509655 652.4235,886.328233 650.5145,908.136961 C648.2235,922.272248 651.8345,940.7614 640.5345,951.508158 C629.0445,940.889455 632.8435,919.94756 633.4045,906.24569 C634.3035,883.895191 635.2745,861.554542 636.1045,839.204044 C636.3645,832.121625 624.6335,830.299305 623.3035,837.499929 C619.5345,858.028108 615.4545,878.497186 611.0635,898.907161 C608.4145,906.79731 606.5935,942.199555 593.3545,936.052921 C585.4635,930.664767 591.1545,899.074617 590.1145,888.61352 C590.6045,867.908034 590.8935,847.232099 592.4145,826.575864 C593.0345,818.242448 579.4635,816.46938 577.6045,824.605789 C574.5845,837.775739 571.6945,850.94569 569.0745,864.204293 C563.3245,886.554792 565.4145,916.854542 544.6545,931.708906 C536.5245,873.650802 548.2235,815.996562 549.8645,758.145315 C548.8835,739.400054 545.6645,720.841949 542.8245,702.323246 C539.6845,681.844318 537.8545,659.552921 545.2045,639.802921 C543.1945,630.957286 535.2945,654.883844 534.5535,656.87362 C528.6045,645.151675 514.1145,644.24544 502.6545,640.590951 C477.1845,632.346188 451.0935,626.130602 425.3245,618.801924 C356.9835,599.820253 288.5635,581.134094 220.1245,562.487335 C192.7845,554.922248 164.0045,545.968258 143.7335,525.302173 M828.0845,834.121251 C818.6545,783.006675 818.9145,731.214393 822.9445,679.53933 C827.3745,599.396687 831.6735,519.234343 836.2745,439.10155 C856.2445,584.138458 877.5345,729.007909 893.8135,874.507784 C894.9735,884.633969 894.7945,895.351176 899.9045,904.383969 C871.6645,908.166512 841.5635,911.978607 814.1045,902.374493 C826.1545,881.540951 830.4045,857.821251 828.0845,834.121251 M215.1435,241.463645 C262.7445,143.738084 359.8035,74.361899 468.6545,59.2317244 C468.7745,59.3499289 468.9045,59.4681334 469.0245,59.5961883 C468.6645,59.9212506 468.3345,60.2758641 468.0345,60.6403279 C470.9635,58.483096 474.9835,61.1919489 473.6845,64.1756272 C475.2945,67.8508017 476.4835,71.6333454 477.9735,75.337086 C478.6045,75.2779838 479.2445,75.2188815 479.8835,75.1203778 C486.3435,87.9455648 489.8435,102.730976 496.5935,115.516762 C533.5345,179.524493 624.6945,205.509779 693.0745,179.671263 C747.3345,156.159405 755.0345,89.2064127 750.1735,37.7382082 C749.9235,34.2708766 748.1645,31.8181334 745.8135,30.3701284 C775.4045,35.1081584 804.9945,39.8855898 834.6145,44.3872107 C848.8835,46.554293 863.5445,49.686712 874.5635,59.4878342 C917.9345,104.119879 925.6735,224.22549 940.2645,286.667011 C905.3545,290.3215 866.3345,310.219256 841.3135,334.342822 C842.4945,306.91938 840.8035,279.633844 837.6435,252.40741 C837.5935,251.07761 835.3745,250.624493 835.1645,252.082348 C828.9145,279.683096 824.1045,307.520253 822.1245,335.799692 C813.8935,449.602049 809.0045,563.629979 801.9545,677.510153 C799.5445,719.423495 796.5345,761.7013 802.5045,803.466887 C821.7235,889.450802 787.8345,931.649804 696.8745,917.356911 C707.9235,808.392074 699.9145,683.715889 608.6645,608.162535 C605.8835,605.681226 602.5445,605.848682 600.0145,607.326238 C525.8245,544.283844 447.5245,485.890827 364.1845,435.042211 C364.7845,424.532847 338.4945,415.243944 331.1335,407.994069 C358.4635,379.684094 379.2745,345.266887 397.4235,310.652672 C399.0245,306.889829 419.8935,269.024991 413.2535,271.408782 C393.4235,300.792448 373.7045,330.363271 350.3545,357.254792 C351.6245,344.853171 319.4945,336.53847 309.6045,330.874505 C271.3935,314.779979 231.4445,302.18135 190.2745,295.659418 C197.6845,277.210652 205.7845,259.036712 215.1435,241.463645 M723.6245,42.1413254 C722.3745,40.0037943 721.1845,37.8170112 720.0445,35.6006771 C723.9045,35.7484327 727.6645,35.8863379 731.4635,36.5167618 C731.2945,42.6338441 731.6335,48.8001783 731.7045,54.9665125 C729.8035,50.4550411 726.0845,46.3375848 723.6245,42.1413254 M1368.4445,903.566388 C1277.2545,837.25367 1127.4735,879.501924 1021.8345,886.318383 C1001.6945,754.254418 1009.9145,620.033221 991.1435,487.752547 C973.8545,355.599929 955.6245,221.605291 912.2045,94.9885823 C894.2845,46.0322232 863.2845,31.4930711 812.2445,31.887086 C786.3435,30.8724975 758.9545,26.72549 733.7845,27.3165125 C728.2645,27.4051658 722.4945,28.1340935 717.5145,30.3602781 C710.5145,14.5799788 706.7135,-2.36266459 704.7945,-19.4333628 C704.6735,-20.516904 703.2945,-20.7139115 702.8835,-19.6796222 C696.9635,-4.81540773 696.3345,11.4081584 699.5535,26.9717494 C701.8835,38.1223728 715.7545,82.0057893 731.8645,64.8365873 C733.1435,100.839704 725.2335,143.836587 689.9635,162.522747 C628.3345,189.394567 543.1435,164.926238 507.4445,107.892572 C500.5445,96.4956895 494.5935,84.368894 486.9545,73.4261135 C540.1845,58.3550411 570.0635,-5.42613092 557.5245,-53.9983254 C549.7745,-16.2221409 535.6435,25.986712 500.4545,47.1453155 C372.3135,46.8596546 265.7745,105.223121 205.5745,217.63559 C193.7945,233.95766 182.9045,250.920004 172.9235,268.177859 C167.5535,279.722498 151.8245,295.778607 165.1735,306.929231 C149.7545,348.084094 136.0745,389.810278 121.6145,431.290203 C117.6435,445.110278 108.5635,459.610029 110.3745,474.13933 C108.4145,483.09332 108.5045,493.682473 112.9945,502.2917 C117.2545,517.638582 126.8135,538.284966 142.6645,544.796064 C156.1145,557.07948 173.1245,565.540951 190.8645,571.914143 C143.5535,695.556039 125.5445,828.900552 109.5145,959.536213 C93.8035,1073.82025 85.6945,1212.83858 184.1335,1295.43298 C186.0445,1319.06502 200.0635,1349.17761 227.7845,1349.43372 C246.9835,1368.28635 270.3835,1357.94346 291.7545,1348.72449 C327.8245,1335.3664 365.6545,1327.9599 403.2445,1323.8326 C407.2745,1326.98472 413.8345,1326.46166 417.4235,1322.78846 C440.1945,1317.53821 471.7535,1338.79532 476.3545,1319.53783 C505.7135,1316.69108 534.7535,1311.35217 564.0845,1308.23847 C551.7235,1324.27586 552.6145,1347.92563 561.9235,1365.25244 C538.2135,1411.89494 593.4445,1438.90467 627.2135,1458.04394 C672.8035,1484.44196 720.4145,1509.49245 772.5535,1520.43523 C818.3935,1530.07874 866.4145,1527.15417 910.6435,1511.74818 C933.8835,1505.90593 966.3435,1486.72823 952.5535,1459.70866 C970.0345,1408.2897 847.2745,1355.00903 811.1645,1329.25917 C825.9235,1327.41813 826.4635,1296.78347 788.0745,1314.38609 C783.4345,1311.28224 778.8745,1308.08086 774.3645,1304.82138 C929.6435,1286.9725 1226.1945,1237.86838 1338.5745,1131.72075 C1400.3135,1077.13983 1435.9345,966.736837 1368.4445,903.566388" id="Ink" fill="#000"/></g></g><g id="Head" transform="translate(345.000000, 180.000000) scale(0.9978902953586498 1)"><g id="Head/Pomp" stroke="none" stroke-width="1" fill="none" fill-rule="evenodd"><path d="M385.414655,173.221564 C381.553655,149.862425 394.225655,145.015818 385.414655,122.81092 C365.832655,81.6673118 312.467655,83.4400723 273.307655,80.2766375 C229.629655,78.6026407 185.421655,84.3688512 145.155655,101.874987 C135.537655,106.055988 126.286655,110.973229 117.418655,116.559869 C109.750655,121.391315 110.804655,130.577347 115.639655,135.588364 C80.7746553,184.960294 100.715655,251.231811 72.8966553,303.201529 C67.7576553,312.491313 60.9606553,320.821392 56.4936553,330.487277 C49.7036553,345.18014 49.2686553,366.232794 64.6666553,375.99046 C86.3536553,387.630623 98.4556553,364.583738 109.111655,397.992843 C162.329655,514.483264 269.328655,521.043576 370.904655,460.309816 C379.692655,455.421506 388.661655,449.896718 395.297655,442.217084 C410.360655,425.265622 408.586655,401.427629 408.919655,380.259251 C409.105655,367.853918 409.136655,355.446589 409.015655,343.03926 C408.541655,292.781448 391.884655,223.065366 385.414655,173.221564 Z" id="Skin" fill="#edb98a"/><path d="M169.0666,33.5077 C230.3966,5.6877 299.9576,-4.8623 366.8576,2.0577 C399.878278,5.46790339 432.464081,12.784251 463.474997,24.6688994 L466.193261,25.7193843 C473.848458,28.6657097 482.100367,31.5902581 487.9176,37.5877 C494.6886,44.5577 496.5876,55.0977 491.7476,63.7077 C487.9876,70.3977 481.2276,75.1967 474.0176,77.7577 C476.5576,79.8377 478.9676,82.1577 481.2276,84.7477 C485.0376,89.0877 485.3276,95.2767 481.2276,99.5577 C473.3276,107.8077 463.0776,113.7767 452.0376,116.6377 C453.2776,122.6277 452.6076,129.2577 449.9476,135.2277 C442.3147,152.3646 420.813385,154.40698 404.267456,153.389458 L403.7676,153.3577 L402.8476,163.8877 C402.3576,169.4977 398.9976,173.8477 393.2976,174.7077 C393.0976,174.7377 392.8966,174.7577 392.6976,174.7767 C401.7176,207.3977 407.1676,241.0267 412.1976,274.4577 C414.8256,291.9087 417.1782,309.4002 419.43036,326.90304 L420.1776,332.7377 C422.5776,351.6077 425.5776,370.6677 426.6176,389.6777 C427.5476,406.9277 424.2576,423.3977 413.6276,437.3177 C404.0876,449.7977 391.0776,459.1477 377.0876,466.0877 C345.4776,481.7767 312.2076,493.4577 277.2476,498.8777 L274.916235,499.236444 C261.421445,501.296219 247.517418,503.032245 234.1676,499.2977 C222.4386,496.0177 210.1376,487.5577 212.7876,473.9677 C213.6776,469.3777 220.0976,469.1777 222.2976,472.7277 L222.80543,473.541144 C225.443517,477.726861 228.33463,481.617033 232.9386,483.7767 C238.3276,486.3177 244.5776,487.0267 250.4676,487.0977 C266.9176,487.2877 284.0476,483.1877 299.8876,479.0777 C329.4676,471.3987 359.8476,458.8777 384.0776,439.9077 C394.3876,431.8477 402.6676,421.7677 405.5876,408.7977 C409.1976,392.8077 405.8776,375.3277 404.2376,359.2577 C400.8626,326.098325 396.845998,293.000473 392.608022,259.939426 L391.7576,253.3277 C388.1886,225.6877 384.4386,198.0377 382.6576,170.2377 C381.9176,169.2277 381.4176,168.0777 381.2176,166.8177 L380.9386,165.0077 L380.9386,165.0077 C380.6976,163.4577 380.6576,162.0377 380.8276,160.7277 C380.8376,155.7077 380.9776,150.7177 381.2676,145.6967 C381.3166,144.7977 381.3576,143.8977 381.3876,143.0077 C376.1676,144.1577 370.9076,145.0877 365.6276,145.8777 C328.5076,151.4677 290.8076,152.8677 253.3876,150.0877 C234.7176,148.6967 216.1886,146.3077 197.7176,143.3177 C188.3166,141.7977 178.9476,140.1177 169.6076,138.2377 C162.8576,136.8877 156.2476,135.0577 149.6076,133.3377 C142.7576,143.3077 139.0576,155.5777 139.7776,167.6277 C140.5876,181.3777 149.7476,193.8477 147.1776,207.8977 C144.7656,221.0467 133.5003,225.1237 122.378289,228.380251 L117.647948,229.746916 C114.008809,230.809438 111.366323,231.834509 110.7076,236.2077 C109.5776,243.7177 110.9676,252.1677 111.2576,259.7177 C111.6076,268.6477 112.0666,277.5777 112.2776,286.5077 C112.3876,291.1277 112.5666,295.7677 112.5576,300.3877 C112.5476,303.6677 112.0576,305.9077 110.7876,308.0267 C111.7676,309.2577 112.6466,310.5877 113.4276,311.9977 C113.6776,312.4577 113.0576,312.9467 112.6886,312.5677 C111.6976,311.5377 110.6466,310.6077 109.5376,309.7767 C108.9776,310.4677 108.3276,311.1677 107.5666,311.9177 L107.5076,311.8377 L107.5076,311.8377 C105.1276,314.2077 101.3476,314.4377 98.3966,311.9177 L97.622266,311.246807 C95.462361,309.353484 93.9782897,307.776666 93.3776,304.6477 C93.3476,304.4877 93.3166,304.3277 93.2976,304.1677 C87.8076,303.9777 82.2276,305.2767 77.2876,308.0077 C69.4576,312.3377 63.9476,318.5077 60.6886,326.1277 C61.9876,327.6477 63.5076,329.0077 65.2776,330.1477 C65.5276,330.3177 65.3076,330.6877 65.0376,330.5577 C63.2276,329.7077 61.6076,328.6577 60.1576,327.4277 C58.9876,330.4277 58.1676,333.6477 57.6676,337.0577 C55.9076,349.0977 59.0476,363.8077 69.9276,370.6677 C74.6376,373.6377 80.0176,375.2477 85.5976,375.2677 C88.3166,375.2767 90.6676,374.8177 93.3076,374.1677 C95.0976,373.7277 96.8776,373.0877 98.7476,373.0877 C100.3476,373.0877 101.8276,373.4877 103.1976,374.2877 L102.817638,374.320971 C101.894271,374.407638 102.071886,374.4467 103.3576,374.4467 C107.3576,374.6177 109.6466,378.6777 107.8076,382.2077 L107.566306,382.753053 C107.515498,382.863292 107.472457,382.954271 107.4386,383.0267 L107.293288,383.963052 C107.2788,384.0521 107.2636,384.1437 107.2476,384.2377 L107.192044,384.42733 C107.182044,384.4577 107.170933,384.4877 107.1576,384.5177 L113.156638,393.666016 C120.511886,404.857394 128.031171,416.005557 136.5876,426.2277 C142.5876,433.3977 148.9476,440.4277 155.6676,446.9377 C161.7076,452.7877 168.9476,455.6077 175.7876,460.2077 C179.4386,462.6477 180.5076,467.7577 177.1886,471.0477 C167.4476,480.7177 153.6576,473.0377 145.6676,465.1777 C138.1076,457.7277 131.5776,448.7677 125.9476,439.7977 C115.9576,423.8477 108.0076,406.8877 104.5276,388.4777 C103.0776,389.8077 101.2276,390.6377 99.3576,391.2877 C95.6076,392.5877 91.4776,393.1277 87.5176,393.2677 C79.9276,393.5177 72.3276,391.6777 65.4976,388.4177 C37.7076,375.1677 33.6276,335.4877 50.6176,312.0877 C48.3266909,305.444064 47.0471661,298.23551 45.65706,292.088454 L45.0246343,289.340608 C37.9999759,258.647793 33.2818,226.33292 45.7376,196.2577 C47.3376,192.3777 49.1376,188.5977 51.2676,184.9777 C52.9776,182.0677 55.9176,178.9677 56.7276,175.6577 C58.5276,168.3877 47.4176,160.7477 44.1776,154.9777 C40.3676,148.2077 39.8276,140.2177 45.0176,134.0267 C45.6776,133.2477 46.3966,132.5267 47.1776,131.8977 C42.2576,122.9777 42.0276,111.7577 48.5076,102.9577 C52.7676,97.1577 59.2676,93.0977 66.3676,91.8677 C70.7076,91.1177 75.9276,91.3977 80.6976,92.7377 C106.8166,68.4877 136.6176,48.2277 169.0666,33.5077 Z M68.7671,336.9378 C75.7381,330.7878 83.4381,327.5678 92.9381,328.3778 C102.4881,329.1968 113.9881,333.1478 119.5971,341.3378 C124.0281,347.8078 114.9981,357.2978 108.4981,352.4378 C102.5781,348.0078 98.6271,343.0078 91.2781,340.6278 C84.6771,338.4978 76.5071,337.1278 69.5971,338.3478 C68.8371,338.4778 68.0781,337.5378 68.7671,336.9378 Z" id="Ink" fill="#000"/></g></g><g id="Face" transform="translate(504.000000, 366.000000) scale(1 1)" fill="#000"><g id="Face/Smile" stroke="none" stroke-width="1" fill="none" fill-rule="evenodd"><path d="M146.586567,240.926554 C139.864291,238.184203 133.866322,233.609781 129.481228,227.766254 C127.956691,225.734803 127.561405,223.589624 127.881219,221.627583 C128.240828,219.421406 129.546036,217.4219 131.326046,216.080693 C133.111571,214.735331 135.345035,214.071832 137.504329,214.410065 C139.380629,214.703969 141.248396,215.731287 142.726594,217.861908 L143.035427,218.287981 C145.642441,221.814933 149.039621,224.708755 152.91047,226.573991 C156.641339,228.371775 160.813939,229.21087 165.131898,228.722919 C173.355732,227.793938 179.024012,223.346401 185.048774,217.30672 C185.795561,216.544195 186.542826,215.757766 187.293714,214.958678 C187.767915,214.234308 188.425986,213.768756 189.156624,213.524488 C189.967867,213.253272 190.885573,213.268617 191.726122,213.56195 C192.536835,213.844871 193.261572,214.380994 193.747527,215.094538 C194.209389,215.772704 194.47125,216.610486 194.386283,217.574143 C193.834826,223.833283 190.562474,229.419299 185.914235,233.805502 C180.751772,238.67694 173.908551,242.047034 167.465957,243.229031 C160.36811,244.531047 153.135593,243.598228 146.586567,240.926554 L146.586567,240.926554 Z M170.814304,144.367155 C178.365682,148.9572 189.871664,159.660291 181.748119,171.039573 C172.185929,181.073062 158.418535,169.568982 151.634201,164.366134 C145.343449,160.333898 138.275437,170.704507 144.112,175.412823 C193.135736,211.708059 213.030606,145.567387 174.633685,138.970386 C170.406047,138.243425 168.835891,142.947174 170.814304,144.367155 Z M82.9633,102.1464 C83.7976284,91.7901242 99.5703,89.4384 101.1393,99.6864 C102.5443,108.8664 100.8903,117.2994 96.7553,125.5644 C92.8043,133.4604 82.8737826,129.776544 82.1227826,122.586544 C81.1160984,112.948648 82.4443,108.588596 82.9633,102.1464 Z M203.027,97.5615 C205.226,94.6815 208.401,92.7155 212.205,93.8265 C224.09,97.2995 220.587,114.1725 216.413,122.3855 C214.145,126.8455 206.814,127.9765 203.501,124.0495 C198.101,117.6455 195.515,104.8565 202.38,98.5485 C202.566,98.2225 202.773,97.8935 203.027,97.5615 Z M96.5879,56.8305 L98.465271,56.501905 C104.27307,55.49746 111.4944,54.5323 115.6029,59.2015 C117.7819,61.6775 118.5319,66.2795 115.6029,68.6495 C110.4509,72.8195 104.7549,71.2035 98.5809,71.5565 C93.4929,71.8485 88.6029,72.6905 83.7019,74.0915 C72.9499,77.1645 64.1889,82.7745 55.0059,88.9345 C53.8009,89.7425 52.5709,88.2015 53.1459,87.0745 C58.4469,76.6915 68.7199,68.1625 79.0099,62.9635 C84.5019,60.1885 90.5119,57.8865 96.5879,56.8305 Z M192.192876,52.1793876 L193.629806,52.4734684 C209.267042,55.742077 229.583473,62.2713911 236.988459,77.6308459 C237.270623,79.8027272 236.97249,80.2682047 236.730054,80.5723213 L236.649336,80.6735209 C236.449568,80.9332186 236.290169,81.2912104 235.348782,81.5868073 C235.087547,81.5245653 234.823712,81.4586426 234.557082,81.3887687 C231.162766,80.499243 228.477205,79.2737961 225.877298,78.0022488 L223.058339,76.6134493 C219.787784,75.0098309 216.488352,73.4645766 212.991711,72.3238115 C205.52958,69.8898666 197.854137,68.1753043 190.059777,67.259767 C188.37041,67.0615005 186.743655,66.4913394 185.460262,65.5141761 C184.242065,64.5866523 183.311441,63.3024737 182.887128,61.5955207 C182.33722,59.3864508 182.495251,57.7140037 183.680513,55.7210991 C184.571756,54.2244705 185.846982,53.1871113 187.311265,52.5914244 C188.804038,51.9841473 190.503545,51.840982 192.192876,52.1793876 Z" id="Ink" fill="#000"/></g></g><g id="Beard" transform="translate(468.000000, 518.000000) scale(1 1)" fill="#000"><g id="Beard/None" stroke="none" stroke-width="1" fill="none" fill-rule="evenodd" fill-opacity="0"/></g><g id="Mask" transform="translate(370.000000, 480.000000) scale(1 1)" fill="#000"><g id="Mask/None" stroke="none" stroke-width="1" fill="none" fill-rule="evenodd" fill-opacity="0"/></g><g id="Accessories" transform="translate(392.000000, 421.000000) scale(1 1)" fill="#000"><g id="Accessories/None" stroke="none" stroke-width="1" fill="none" fill-rule="evenodd" fill-opacity="0"/></g></g></svg>