<svg width="1351" height="2956" viewBox="0 0 1351 2956" fill="none" xmlns="http://www.w3.org/2000/svg">
<path fill-rule="evenodd" clip-rule="evenodd" d="M225.528 1349.36C225.697 1360.85 226.848 1387.24 229.732 1398.37C197.612 1346.87 149.485 1290.58 142.165 1227.5C144.446 1226.88 154.568 1225.95 156.335 1224.62C172.952 1232.34 169.808 1208.57 172.264 1197.58C178.897 1174.31 192.831 1151.42 198.885 1127.99C214.8 1121.1 182.841 1118.19 178.197 1118.05C197.501 1096.55 206.38 1067 220.125 1041.92C240.32 999.292 258.408 955.719 274.559 911.464C278.089 939.193 278.722 967.223 276.571 995.106C269.929 1114.54 225.078 1229.38 225.528 1349.36ZM1340.28 1137.21C1330.28 1138.89 1313.63 1140.48 1303.66 1141.3C1316.75 1133.49 1355.44 1118.62 1331.06 1105.26C1323.54 1102.51 1315.47 1106.43 1307.89 1107.64C1276.41 1112.82 1237.54 1112.55 1205.69 1109.94C1217.3 1100.4 1232.59 1086.68 1243.92 1076.81C1249.94 1071.57 1255.78 1069.58 1249 1061.76C1237.06 1050.63 1215.71 1058.82 1201.91 1063.71C1163.83 1085.05 1120.84 1108.2 1079.97 1124.62C1079.55 1118.89 1079.81 1111.49 1074.29 1107.64C1058.1 1100 1046.17 1102.24 1028.94 1100.2C1008.86 1097.19 991.009 1093.77 971.12 1088.45C958.112 1078.53 950.18 1049.26 929.379 1052.53C947.802 1006.16 919.723 957.77 909.174 913.362C896.011 867.916 889.095 820.718 888.907 773.464C888.778 697.809 844.972 639.759 781.676 600.939C756.723 584.082 739.967 543.08 709.074 534.868C705.145 519.787 704.906 513.163 701.456 497.967C699.724 493.602 698.437 469.917 694.081 470.723C689.278 447.262 664.798 437.853 643.615 432.939C616.073 427.229 577.638 420.313 552.879 436.425C545.708 442.394 542.558 452.389 542.032 461.318C539.281 473.208 533.558 485.525 526.888 495.842C515.505 491.994 521.947 484.824 510.688 483.155C407.886 467.912 293.775 543.358 227.074 616.958C106.169 741.159 9.58158 910.713 25.3921 1087.73C21.14 1087.1 2.29333 1084.15 2.56242 1090.1C3.48837 1116.01 8.25254 1137.61 9.56758 1163.5C8.26054 1197.79 43.8728 1201.92 69.5986 1210.38C68.0146 1309.86 104.145 1409.38 160.695 1491.16C174.433 1507.25 195.048 1563.09 220.125 1540.85C223.08 1537.39 200.162 1513.44 196.085 1507.52C182.162 1489.98 145.283 1403.17 171.347 1385.83C177.141 1404.57 233.248 1494.68 243.249 1443.54C256.532 1451.25 278.483 1456.51 294.362 1455.72C324.214 1471.89 353.262 1489.36 381.93 1507.52C395.284 1533.75 414.87 1558.95 431.28 1584.14C317.715 1846.56 206.867 2278.48 60.7232 2525.65C47.9808 2541.79 118.08 2569.22 130.461 2575.14C106.783 2613.61 103.819 2658.17 85.8051 2699.59C82.374 2699.03 78.9128 2699.76 75.8177 2701.42C53.597 2716.48 45.2117 2770.37 43.9446 2796.94C44.9707 2808.79 40.5785 2826.72 50.1649 2835.45C48.8248 2836.9 47.8248 2838.67 47.1127 2840.48C40.3665 2845.73 41.1975 2857.34 44.8037 2864.54C57.4921 2890.89 150.236 2888.44 180.333 2894.08C286.943 2903.11 376.423 2904.54 483.018 2894.66C496.102 2891.92 486.207 2871.5 479.747 2865.96C482.731 2864.14 484.639 2860.83 483.333 2856.57C459.1 2787.24 371.515 2791.93 318.518 2754.9C332.453 2746.84 323.459 2749.41 314.703 2752.55C305.411 2746.71 296.372 2740.13 287.999 2732.87C294.43 2728.9 291.258 2726.27 284.3 2729.6C273.335 2720.8 264.795 2707.21 250.826 2702.94C237.145 2699.59 237.145 2693.74 237.145 2690.05C245.287 2657.29 254.181 2623.71 258.752 2590.49C263.629 2597.69 305.701 2540.04 314.703 2525.65C349.682 2470.23 349.587 2415.62 374.065 2355.35C424.33 2224.1 527.294 1949.03 590.086 1823.51C737.005 2063.01 665.446 2386.93 756.079 2642.32C760.107 2649.99 767.682 2678.77 778.172 2670.47C782.249 2671.42 786.584 2671.94 790.467 2672.49C789.346 2700.41 787.255 2728.25 782.618 2755.88C778.299 2757.02 774.629 2759.29 772.727 2763.25C765.452 2757.91 751.525 2836.74 750.333 2844.78C750.315 2855.13 741.389 2878.2 749.541 2884.36C737.795 2889.16 735.875 2906.94 744.137 2916.07C768.666 2949.05 888.231 2939.99 932.34 2945.52C988.12 2944.14 1221.47 2965.03 1237.67 2912.09C1240.89 2900.01 1235.37 2884.75 1224.14 2880.1C1228.64 2869.61 1217.87 2859.47 1211.29 2852.11C1172.47 2811.71 1112.77 2805.35 1061.08 2787.76C1063.01 2785.79 993.608 2750.22 978.562 2741.42C979.555 2729.48 954.742 2741.45 954.673 2741.42C942.843 2720.5 934.463 2687.96 926.53 2665.4C941.17 2660.86 976.443 2656.82 982.98 2642.32C1003.99 2635.27 982.915 2604.79 978.562 2590.49C855.401 2282.21 972.248 1893.36 790.467 1602.39C823.788 1583.3 862.016 1541.52 829.102 1506.47C822.515 1498.05 806.402 1471.82 806.667 1476.4C800.547 1451.42 786.877 1408.4 782.618 1383.14C766.981 1290.42 777.23 1203.58 790.467 1109.94C808.845 1180.4 872.186 1239.11 936.622 1271.3C961.77 1281.68 994.977 1303.11 1022.59 1296.35C1047.5 1288.97 1092.76 1237.8 1098.09 1213.22C1170.73 1221.86 1246.15 1214.92 1315.57 1192.08C1324.48 1188.71 1335.03 1189 1332.27 1176.34C1329.53 1165.61 1309.93 1168.34 1301.51 1170.34C1314.38 1163.2 1347.82 1161.33 1347.57 1142.66C1347.13 1138.76 1344.25 1136.54 1340.28 1137.21Z" fill="#EDB98A"/>
<path fill-rule="evenodd" clip-rule="evenodd" d="M976.438 2734.48C980.908 2738.91 1015.22 2765.25 1061.56 2787.45C1089.89 2801.01 1124.4 2808.02 1153.56 2821.45C1185.03 2835.94 1210.65 2856.86 1226.3 2871.99L1242.41 2915.06C1239.96 2930.68 1167.52 2940.57 1091.48 2943.09C980.098 2946.78 841.702 2936.09 828.478 2934.68C805.666 2932.58 734.589 2934.92 747.69 2897.67C751.413 2898.85 752.589 2874.9 755.205 2872.59L757.461 2854.34C763.933 2802.24 767.729 2774.21 768.849 2770.24C769.138 2769.79 769.437 2769.34 769.767 2768.91C773.62 2763.93 780.137 2762.54 786.141 2762.9C786.628 2762.93 787.118 2762.99 787.611 2763.07C788.427 2763.49 789.215 2764 789.963 2764.59L790.592 2764.68C790.697 2764.7 790.803 2764.71 790.911 2764.73C791.127 2764.76 791.32 2764.82 791.501 2764.9C791.651 2764.65 791.782 2764.38 791.914 2764.11C795.632 2765.24 799.416 2766.78 803.043 2766.95L805.666 2768.1L809.06 2769.62L818.862 2774.03L821.053 2775C833.687 2780.54 865.397 2792.44 894.563 2788.45C922.806 2784.59 946.525 2756.51 955.259 2749.12C961.604 2743.3 970.523 2740.58 976.438 2734.48ZM247.179 2700.88C249.955 2701.61 262.218 2709.07 272.783 2719.17C282.764 2728.71 290.691 2740.62 305.563 2751.45C327.043 2767.1 409.536 2796.97 454.515 2825.66C477.837 2840.53 492.706 2889.05 493.093 2891.29C351.555 2899.42 182.748 2897.83 42.5627 2875.45C39.8971 2874.67 41.0344 2813.05 47.3692 2771.7L47.5627 2770.45C52.1322 2741.4 57.3266 2725.43 57.6431 2724.75L58.001 2724.15C63.8201 2714.65 79.7386 2704.45 90.0472 2711.39L90.144 2711.47L92.0732 2713.22C101.282 2721.49 139.762 2754.62 166.478 2746.58C175.226 2743.74 182.489 2738.06 190.099 2733.1C210.577 2719.88 224.075 2708.84 247.179 2700.88ZM251.269 2699.05C253.149 2700.26 254.937 2701.63 256.665 2703.09C254.416 2701.74 252.032 2700.62 249.464 2699.82C250.025 2699.62 250.567 2699.39 251.089 2699.14L251.269 2699.05Z" fill="white"/>
<path fill-rule="evenodd" clip-rule="evenodd" d="M498.107 478.378L499.727 478.579C506.036 479.403 511.318 480.771 515.807 483.034L516.321 483.299L518.375 484.38L518.874 486.648C520.44 493.762 526.269 509.808 529.413 516.104L529.579 516.432L529.685 516.637L530.056 517.322L530.835 519.11C546.113 553.98 566.749 587.126 591.898 617.545L593.136 619.036L593.92 620.089C616.809 650.642 645.917 672.587 670.132 673.173L670.865 673.185L672.154 673.174C685.999 672.857 698.341 665.577 708.993 650.128C716.283 639.392 720.437 626.046 721.993 610.042C723.233 597.291 722.837 583.68 721.146 566.616L721.033 565.498L720.758 562.849L720.565 561.059C720.482 560.298 720.341 560.129 720.065 560.105L720.003 560.102L719.894 560.101L719.829 560.104L719.769 560.11L719.659 560.13L714.534 562.195L712.609 556.349L712.2 555.138L711.746 553.818L709.899 548.53L709.314 546.821L708.848 545.428C708.185 543.414 707.636 541.611 707.149 539.82L706.969 539.148L704.31 528.706L713.194 531.932C713.661 532.101 714.125 532.278 714.584 532.462L715.269 532.742L715.916 533.013L716.464 533.451C718.345 534.956 720.238 536.178 723.586 538.093L724.012 538.336L728.407 540.818L729.385 541.649L730.05 542.227C734.111 545.808 737.554 549.635 742.815 556.123L743.245 556.655L747.061 561.406L748.869 563.629L749.915 565.35L750.698 566.667L751.139 567.414L753.623 571.669L754.79 573.646C757.76 578.641 759.657 581.494 761.997 584.386L762.442 584.929L762.763 585.314C766.641 589.913 771.464 594.011 778.678 599.153L779.938 600.045L781.817 601.357L782.514 601.945C784.205 603.352 785.824 604.537 787.406 605.514L787.862 605.789L788.415 605.989L790.815 607.703L792.654 609.029C805.682 618.472 815.412 626.528 824.305 635.595C830.508 641.919 836.282 648.485 841.582 655.266L842.635 656.625C843.516 657.769 844.326 658.852 845.266 660.143L846.256 661.513L850.988 668.15L852.267 669.917C854.082 672.404 855.467 674.2 856.93 675.954L857.175 676.246L857.842 677.031L858.508 677.585L858.97 678.462C863.948 687.918 867.8 697.716 870.51 708.063L870.758 709.031L871.049 709.863C874.659 720.355 876.989 731.459 878.403 743.95L878.542 745.204L878.776 747.479C879.538 755.193 879.915 761.981 880.23 773.044L880.33 776.81L880.678 791.833L880.773 795.298C881.183 809.348 881.803 818.687 883.109 828.213L883.188 828.785L883.346 829.891L883.365 830.039C888.375 873.705 898.577 916.366 913.825 957.282L914.544 959.199L915.079 960.612L918.982 970.803L919.876 973.167C924.03 984.216 926.514 991.853 928.379 999.937C930.959 1011.12 931.725 1021.33 930.38 1031.12L930.268 1031.9L930.205 1032.41C929.447 1038.63 929.308 1044.48 929.702 1048.81L929.756 1049.37L931.191 1049.38C935.893 1049.41 939.731 1050.93 942.788 1053.85L943.081 1054.14L943.37 1054.44C945.684 1056.87 947.334 1059.83 949.248 1064.45L949.699 1065.58C950.252 1066.98 951.65 1070.53 952.675 1073.05L953.406 1074.82L953.883 1075.91C954.572 1077.45 959.768 1083.56 968.562 1087.45C971.99 1088.96 978.364 1090.5 987.685 1092.07L988.587 1092.43C1001.19 1097.48 1012.5 1099.9 1034.72 1102.91L1038.81 1103.45L1048.01 1104.65C1057.26 1105.86 1063.1 1106.74 1069.1 1107.88L1070.82 1108.21L1082.92 1110.63L1073.61 1117.34C1057.61 1128.87 999.504 1191.12 996.562 1212.45C993.069 1237.78 1046.93 1221.05 1054.42 1212.82L1055.26 1211.89L1056.08 1210.97L1058.58 1208.13L1061.04 1208.3L1063.48 1208.47C1068.38 1208.84 1073.47 1209.31 1078.91 1209.89L1088.37 1210.91L1081.67 1221.2L1079.92 1223.87L1078.72 1225.68L1077.5 1227.52L1076.26 1229.37C1058.98 1255.05 1044.37 1271.84 1026.28 1284.28L1025.67 1284.7L1025.33 1284.94C1020.77 1288.17 1015.75 1289.81 1010.26 1290.08L1009.71 1290.1L1009.15 1290.12L1008.71 1290.12C1005.68 1290.12 1002.55 1289.72 999.198 1288.97L998.43 1288.79C995.371 1288.06 992.464 1287.14 988.198 1285.61L987.102 1285.22L983.54 1283.92L980.786 1282.94L979.943 1282.64C967.846 1278.32 956.039 1273.42 944.559 1267.96C870.743 1233.25 814.492 1180.71 791.192 1116.67L790.496 1114.73L789.736 1112.53L777.668 1115.17L777.347 1117.94C762.76 1245.53 765.655 1347.01 791.746 1441.57L792.543 1444.43L793.29 1447.06L794.542 1450.08C798.308 1459.12 802.414 1468.45 807.589 1479.82L809.731 1484.51L811.223 1484.97L812.168 1486.98C813.366 1489.52 814.745 1492.02 816.304 1494.47L816.682 1495.06C818.262 1497.49 819.892 1499.63 822.706 1503.02L823.405 1503.86L827.566 1508.81L828.471 1509.9C828.659 1510.13 828.84 1510.36 829.018 1510.58L829.546 1511.23L830.427 1512.34C830.834 1512.86 831.216 1513.36 831.581 1513.85L832.117 1514.57L832.672 1515.54C834.944 1519.59 836.612 1523.21 837.796 1526.9L838.012 1527.59L838.12 1527.95L838.175 1528.32C841.364 1549.88 832.064 1569.15 813.141 1585.92C799.027 1598.43 780.287 1608.97 759.152 1617.59L757.928 1618.08C731.117 1628.16 704.27 1633.3 677.059 1633.84L675.698 1633.87L672.252 1633.89C631.319 1633.89 590.066 1623.69 545.243 1604.03L543.253 1603.16C511.465 1589.08 482.298 1572.8 435.351 1544.04L432.394 1542.22L426.079 1538.34L408.77 1527.65L408.395 1526.79L407.579 1526.13L407.033 1525.71C403.656 1523.11 399.998 1520.96 393.598 1517.61L392.535 1517.05L389.416 1515.44L385.835 1513.58L383.292 1512.03L379.466 1509.72C365.605 1501.37 353.516 1494.34 341.969 1487.96L340.921 1487.38L338.026 1485.79L337.861 1485.7C330.915 1481.55 324.071 1477.55 317.302 1473.67L314.578 1472.11L312.269 1470.51L310.214 1469.1L308.145 1467.69L306.581 1466.64C297.047 1460.26 289.52 1455.9 281.729 1452.49C273.838 1449.03 267.109 1446.76 260.81 1445.72L260.159 1445.62L259.146 1445.47L258.274 1444.93C254.592 1442.65 251.307 1440.21 248.365 1437.5C241.431 1431.13 237.388 1423.48 235.449 1414.12L235.325 1413.5L234.936 1411.51L236.044 1409.81C236.228 1409.53 236.403 1408.42 236.48 1406.18L236.496 1405.59L236.54 1403.84L236.567 1403.07C236.655 1400.89 236.82 1399.54 237.25 1398.21L237.359 1397.89L237.457 1397.11C238.787 1386.21 239.536 1376.64 240.426 1360.06L240.609 1356.59L241.553 1337.81C242.056 1328.17 242.498 1321.11 243.054 1314.34L243.244 1312.09L243.529 1308.91L243.796 1305.74C246.664 1272.46 251.246 1244.43 262.367 1186.84L268.181 1156.8C271.245 1140.82 273.291 1129.72 275.177 1118.69L275.941 1114.17L277.064 1107.37L277.625 1103.88C283.428 1067.37 286.406 1036.46 286.484 1006.9C286.575 972.489 282.63 940.62 273.993 910.102L273.565 908.602L273.4 908.038L264.404 916.656C226.477 995.432 198.399 1052.52 180.169 1087.93L178.873 1090.44L178.619 1091.06C177.402 1094.22 177.136 1102.48 178.041 1110.82L178.151 1111.78L178.273 1112.76L178.42 1113.83C179.058 1118.26 179.975 1122.13 181.033 1124.8C181.372 1125.66 181.708 1126.34 182.01 1126.84L182.121 1127.01L182.194 1127.12L182.75 1127.12C183.651 1127.11 184.551 1127.11 185.448 1127.09L186.79 1127.07L188.793 1127.03L200.687 1126.68L194.486 1134.97C176.61 1158.89 162.895 1186.94 154.616 1216.28L154.255 1217.58L152.797 1222.91L148.117 1222.47L147.273 1222.4L144.673 1222.2L141.597 1221.91L140.612 1220.37L138.769 1221.52L135.415 1220.88L132.713 1220.34C111.851 1216.17 92.5773 1210.73 60.2074 1200.44L57.0334 1199.43L45.0151 1195.58L38.5789 1193.52L37.6442 1193.2L36.8132 1192.91L36.0209 1192.62C26.9114 1189.22 21.7134 1184.72 19.1696 1176.35L18.979 1175.7L18.7934 1174.73L10.1115 1129.1L8.69666 1121.82C7.16694 1113.99 5.76611 1107 4.37241 1100.26L3.32655 1095.25L1.49902 1086.62L10.4669 1085.86L11.5219 1085.76C14.257 1085.49 16.3795 1085.2 18.1623 1084.81L18.5574 1084.72L18.64 1082.63L18.7201 1080.79C18.8183 1078.61 18.9342 1076.33 19.0722 1073.92L19.1961 1071.82L19.3853 1068.83C20.4383 1052.72 22.1769 1034.98 24.8025 1015.8C32.3749 960.492 45.586 905.265 65.9097 853.619C81.2881 814.539 105.134 774.073 135.969 732.538C160.434 699.584 187.973 667.642 218.711 635.345C258.507 592.899 290.101 563.573 324.161 539.658C366.345 510.038 408.945 491.894 454.287 486.226L455.455 486.083L457.339 485.713C459.979 485.205 462.575 484.751 466.117 484.173L466.753 484.07L478.585 482.19L481.807 481.661C486.057 480.95 489.281 480.351 492.437 479.678L493.788 479.384L495.248 479.054L498.107 478.378Z" fill="#FFCF77"/>
<path fill-rule="evenodd" clip-rule="evenodd" d="M542.284 446.448C543.389 446.896 544.143 448.577 544.59 451.103C545.82 451.487 546.874 452.396 547.191 453.765C548.123 457.791 547.034 461.989 546.194 466.002L546.098 466.464C545.303 470.349 544.331 474.21 543.143 477.996L542.969 478.955C540.078 494.602 534.504 509.48 527.957 506.953L529.47 509.708C555.157 556.348 628.53 681.576 685.818 663.727C719.178 650.35 718.701 606.866 716.262 576.603C691.492 591.803 686.858 475.447 691.936 462.589C695.979 459.614 697.929 486.38 699.433 490.07C702.715 504.752 706.74 519.245 710.519 533.805C718.506 535.387 726.06 538.572 732.739 543.137C733.057 543.32 733.385 543.486 733.697 543.676C737.705 546.116 740.832 549.228 743.62 552.675C746.771 556.202 749.466 560.063 752.011 564.032C757.605 570.391 762.938 576.986 768.449 583.413C771.064 586.463 773.741 589.42 776.478 592.302L778.589 594.076C778.941 594.371 779.295 594.664 779.649 594.955C842.939 634.488 886.754 693.639 886.877 770.685C887.064 818.818 893.98 866.892 907.144 913.184C917.691 958.416 951.769 1004.65 933.347 1051.88C954.148 1048.55 956.08 1075.31 969.088 1085.42L973.175 1086.52C991.45 1091.44 1008.21 1095.55 1026.91 1098.4C1044.14 1100.47 1064.06 1098.2 1080.25 1105.98C1085.77 1109.9 1083.8 1116.97 1084.23 1122.8C1125.09 1106.08 1161.79 1082.97 1199.87 1061.23L1201.15 1060.78C1215.24 1055.77 1240.38 1048.25 1251.96 1059.24C1258.73 1067.21 1251.9 1074.33 1245.88 1079.67C1234.55 1089.72 1222.53 1098.93 1210.92 1108.64C1242.2 1111.26 1273.57 1109.17 1304.51 1104.09L1306.2 1103.81C1313.77 1102.58 1322.71 1099.63 1330.23 1102.43C1354.61 1116.04 1326.4 1131.93 1313.31 1139.88C1323.28 1139.05 1333.24 1137.81 1343.23 1136.1C1347.21 1135.42 1350.08 1137.68 1350.52 1141.64C1350.77 1160.66 1325.73 1161.69 1312.85 1168.96L1313.89 1168.72C1322.3 1166.77 1334.41 1165.05 1337.05 1175.55C1339.8 1188.44 1322.44 1193.65 1313.53 1197.08C1244.11 1220.35 1168.69 1227.41 1096.06 1218.61C1090.72 1243.65 1045.47 1295.77 1020.55 1303.28C992.943 1310.17 959.737 1288.34 934.59 1277.77C870.156 1244.98 810.454 1190.89 792.078 1119.11C776.635 1230.4 782.877 1342.59 806.06 1452.08C809.813 1460.62 813.773 1469.02 818.228 1477.21C819.574 1477.43 820.713 1478.33 820.976 1480.15C821.113 1481.15 821.314 1482.12 821.541 1483.07C825.977 1490.61 830.839 1497.86 835.353 1505.35C836.286 1506.9 837.207 1508.51 838.049 1510.16C868.099 1545.62 831.473 1591.31 798.715 1610.43C980.49 1906.8 863.086 2280.29 986.243 2594.3L986.517 2595.2C991.192 2610.13 1005.43 2640.87 984.838 2647.91C978.301 2662.68 945.359 2664.42 930.721 2669.05C938.652 2692.03 947.471 2714.76 959.301 2736.07L959.515 2736.16C964.227 2732.69 974.331 2729.11 978.507 2732.89C979.523 2733.02 980.535 2733.3 981.523 2733.8C987.986 2737.01 993.185 2743.15 999.367 2747.02C1002.71 2749.11 1006.19 2751.01 1009.76 2752.67C1013.1 2754.22 1016.64 2755.23 1019.35 2757.78C1020.21 2758.58 1020.43 2759.6 1020.22 2760.54C1022.36 2761.66 1024.51 2762.78 1026.64 2763.9L1027.8 2763.17C1046.69 2751.4 1061.89 2745.02 1034.41 2767.64C1044.25 2772.19 1054.35 2776.18 1064.51 2779.91C1072.23 2776.2 1080.47 2773.49 1088.96 2773.11C1090.49 2775 1078.82 2782.31 1076.89 2784.32C1128.58 2802.23 1185.43 2816.25 1224.25 2857.4L1225.12 2858.38C1231.73 2865.79 1241.4 2875.68 1237.1 2885.91C1248.33 2890.65 1253.85 2906.19 1250.63 2918.49C1234.43 2972.41 986.086 2951.14 930.309 2952.54C886.201 2946.91 766.64 2956.15 742.111 2922.55C733.852 2913.24 735.77 2895.14 747.516 2890.24C739.364 2883.97 748.289 2860.48 748.309 2849.93L748.496 2848.71C749.745 2840.83 755.158 2810 760.775 2788.46C760.89 2786.76 761.115 2785.02 761.387 2783.27L761.563 2782.16C762.681 2775.29 764.395 2768.3 768.828 2762.78C772.012 2758.82 776.424 2756.37 781.211 2755.48C782.494 2747.28 783.547 2739.06 784.451 2730.82C785.088 2721.14 785.33 2711.44 785.221 2701.73C785.164 2696.83 785.035 2691.94 784.796 2687.04C784.62 2683.44 784.826 2679.16 783.912 2675.48C783.303 2676.1 782.436 2676.44 781.465 2676.1C779.402 2675.4 777.503 2674.09 775.609 2673.02C775.538 2672.98 775.481 2672.94 775.42 2672.89C765.306 2679.46 757.987 2651.34 754.053 2643.71C663.424 2383.57 734.981 2084.19 588.066 1840.24C567.784 1883.8 550.355 1923.75 530.833 1967.61C469.865 2104.58 394.6 2345.86 344.125 2490.89C330.392 2520.54 314.25 2549.19 295.062 2575.67C288.928 2582.63 284.812 2592.87 275.932 2596.61L275.155 2596.73C272.785 2601.16 269.495 2604.89 264.603 2604.76C263.403 2604.73 262.179 2604.6 260.943 2604.39C256.607 2634.57 251.155 2664.93 243.907 2694.63L244.885 2694.22C249.629 2692.26 254.618 2690.59 259.487 2691.03C271.303 2694.02 266.928 2704.36 257.588 2707.77C269.214 2711.38 277.081 2721.57 285.714 2730.06C293.01 2726.13 301.188 2724.08 309.927 2724.94C311.265 2725.08 312.285 2725.66 312.994 2726.46C313.495 2726.47 313.982 2726.5 314.444 2726.57L313.493 2727.15C315.045 2729.76 313.937 2733.74 309.927 2733.76C306.779 2733.77 303.748 2734.06 300.817 2734.6C298.782 2735.79 296.757 2737 294.76 2738.25C301.497 2744.21 308.67 2749.7 316.056 2754.72C319.957 2752.72 324.082 2751.05 328.373 2749.71C333.912 2747.98 336.33 2756.79 330.766 2758.39C329.585 2758.73 328.415 2759.1 327.253 2759.51L326.112 2760.2C325.845 2760.36 325.567 2760.52 325.277 2760.69C378.274 2798.41 467.855 2793.63 492.088 2864.25C492.89 2866.91 492.477 2869.21 491.35 2871.02C496.602 2875.84 499.025 2884.51 497.842 2891.16L497.943 2891.72C498.844 2897.1 497.548 2901.82 491.772 2903.05C453.231 2906.64 414.784 2908.92 376.075 2909.63L372.951 2909.66C317.493 2910.03 47.7408 2908.01 35.5731 2872.37C32.3281 2865.77 31.3281 2855.53 36.0761 2849.65C36.6271 2846.49 37.7121 2843.6 39.6411 2841.34C31.8281 2833.45 35.6711 2813.54 34.7151 2803.51C36.4301 2770.04 43.2161 2734.15 63.6601 2706.75C63.9941 2706.32 64.3981 2706.05 64.8151 2705.92C68.3851 2702.33 73.0761 2700.07 78.4401 2699.76C78.6071 2699.34 78.7771 2698.93 78.9401 2698.51C83.1101 2688.67 87.0711 2678.65 91.0061 2668.58C93.9261 2657.14 96.9721 2645.73 100.023 2634.38C103.072 2623.04 106.055 2611.68 108.973 2600.31C111.297 2591.24 113.296 2581.03 117.318 2572.36C117.209 2571.99 117.104 2571.62 116.984 2571.25L112.799 2569.56C85.3851 2558.41 41.9484 2539.6 51.4921 2527.18C153.191 2315.69 252.74 2014.6 346.068 1795.35C347.526 1791.05 349.068 1786.78 350.761 1782.54C354.883 1772.24 359.058 1761.95 363.292 1751.68L365.84 1745.53L406.499 1647.62C410.755 1637.37 415.553 1627.18 418.907 1616.59C422.139 1606.39 423.007 1596.24 416.867 1586.96C411.373 1578.65 403.631 1571.78 397.437 1563.98C392.753 1558.08 388.187 1551.77 384.095 1545.15C380.379 1540.25 377.273 1534.64 374.502 1530.11C370.061 1522.87 364.414 1514.84 361.191 1506.47C357.034 1503.84 352.869 1501.23 348.689 1498.65C341.47 1494.6 334.367 1490.36 327.453 1485.78C318.721 1480.58 309.933 1475.47 301.076 1470.48C297.879 1468.9 294.68 1467.31 291.477 1465.74C281.881 1466.57 255.371 1454.73 246.34 1446.72C245.308 1446.51 244.281 1446.28 243.26 1446.02C242.852 1451.14 241.182 1455.77 237.291 1459.21C211.414 1472.06 178.432 1413.85 169.342 1394.43C151.278 1412.1 194.38 1499.46 208.303 1517.32L209.046 1518.42C212.77 1524.01 216.674 1530.28 221.956 1534.4L222.489 1534.81C226.11 1537.49 226.782 1541.68 223.828 1545.2C198.751 1567.86 172.427 1518.11 158.689 1501.71C102.143 1418.41 66.0121 1317.05 67.5961 1215.72C41.8721 1207.1 6.26013 1202.89 7.56713 1167.97C6.25213 1141.6 1.48814 1115.52 0.559414 1089.13C0.29414 1083.07 19.1401 1086.08 23.3931 1086.72C17.1281 1026.09 26.5941 964.542 43.4771 906.277C87.8011 757.191 270.324 488.485 449.975 478.784C449.818 478.491 449.892 478.096 450.295 477.991C458.426 475.878 467.412 476.216 475.768 476.482C484.465 476.758 493.305 476.818 501.956 477.801C510.922 478.819 520.416 482.117 526.439 488.643L528.525 484.876C530.947 480.478 533.281 476.035 535.043 471.182C535.936 468.73 536.635 466.188 537.273 463.619C537.994 459.955 538.175 456.141 539.908 452.813C539.954 452.726 540.011 452.654 540.061 452.573C540.684 450.476 541.397 448.422 542.284 446.448ZM762.775 2890.12C760.207 2892.73 755.756 2893.87 751.814 2892.62C738.713 2929.86 809.79 2927.53 832.602 2929.62C856.927 2932.22 1300.02 2955.28 1225.09 2900.67C1137.17 2934.2 843.131 2937.9 762.775 2890.12ZM978.562 2742.42C972.647 2748.53 963.728 2751.24 957.383 2757.07C939.446 2772.25 925.017 2793.61 900.227 2797.63C867.659 2803.71 838.299 2787.63 809.167 2774.89C805.54 2774.72 801.756 2773.19 798.038 2772.05C797.906 2772.32 797.775 2772.59 797.625 2772.84C797.444 2772.77 797.251 2772.71 797.035 2772.67C796.711 2772.62 796.404 2772.59 796.087 2772.54C795.339 2771.94 794.551 2771.44 793.735 2771.01C793.242 2770.94 792.752 2770.88 792.265 2770.85C786.261 2770.48 779.744 2771.88 775.891 2776.86C775.561 2777.28 775.262 2777.73 774.973 2778.18C773.106 2784.8 772.867 2792.82 773.768 2798.42C774.06 2800.25 773.298 2802.05 772.008 2803.08C770.857 2830.8 767.739 2858.62 765.562 2885.97C776.458 2889.88 787.764 2892.87 799.08 2894.76C877.167 2904.36 956.088 2908.82 1034.78 2906.41C1081.62 2904.72 1128.39 2900.53 1174.75 2893.57C1189.73 2892.15 1205.07 2886.35 1220.05 2888.7C1220.69 2887.49 1221.68 2886.46 1223.06 2885.76C1184.68 2833.16 1119.07 2818.94 1061.87 2795.88C1052.43 2801.93 1046.61 2814.51 1036.09 2818.26C1032 2818.87 1026.32 2816.46 1026.92 2811.28C1028.62 2800.66 1040.08 2795.82 1047.8 2789.66C1039.52 2785.79 1031.39 2781.58 1023.47 2776.91C1015.69 2783.93 1006.47 2789.27 999.185 2796.76C1003.33 2806.88 986.057 2806 985.864 2795.23C987.059 2783.31 1005.93 2778.27 1014.35 2771.32C1001.19 2763.31 989.435 2753.2 978.562 2742.42ZM51.2101 2846.55C50.7511 2847.46 50.0021 2848.28 48.8931 2848.93C46.9734 2850.04 47.896 2855.91 47.9924 2857.89L47.9981 2858.04C48.1031 2861.59 48.3251 2865.14 48.6331 2868.68C51.8731 2871.6 56.0161 2873.83 60.6191 2875.16C200.804 2897.55 343.679 2899.36 485.217 2891.24C484.566 2887.47 481.815 2884.37 479.38 2881.23C389.902 2888.84 298.272 2880.88 208.644 2873.47C156.246 2866.57 101.346 2863.72 51.2101 2846.55ZM255.303 2708.82C232.199 2716.78 210.701 2727.82 190.223 2741.05C182.613 2746 175.35 2751.68 166.602 2754.52C136.312 2763.64 90.8991 2719.83 90.1711 2719.34C79.6521 2712.25 68.4981 2718.86 62.7751 2728.68C62.2461 2729.59 53.4731 2779.81 53.7381 2804.42C52.1641 2812.78 56.3641 2826.46 54.1291 2835.57C55.8861 2837.69 58.3911 2838.69 60.0781 2840.9C60.6891 2841.7 60.5161 2842.61 59.9881 2843.29C141.784 2850.03 223.104 2862.81 305.289 2865.5C361.537 2868.48 417.892 2867.8 474.149 2867.11C461.35 2829.51 417.754 2819.58 384.454 2807.21C359.294 2798.16 336.13 2784.69 315.748 2767.37C306.909 2773.58 299.939 2782.28 293.677 2791.02C290.832 2794.57 284.989 2797.25 281.942 2792.33C278.804 2787.22 284.93 2780.77 292.494 2775.11C296.472 2769.22 301.489 2764.19 307.266 2760.06C300.879 2754.36 294.729 2748.42 288.968 2742.12C277.021 2750.21 268.244 2761.86 259.65 2773.17C255.52 2777.68 247.796 2771.72 251.184 2766.64C253.899 2763.14 256.955 2759.91 260.227 2756.88C265.159 2747.57 272.26 2738.97 280.875 2733.02L280.218 2732.19C273.022 2722.94 266.801 2711.86 255.303 2708.82ZM51.7391 2840.65C51.5411 2840.9 51.3331 2841.13 51.1111 2841.36C51.3091 2841.76 51.4611 2842.19 51.5731 2842.62L53.6721 2842.79C52.9431 2842.18 52.3011 2841.45 51.7391 2840.65ZM923.036 2670.57C880.181 2678.66 835.91 2681.78 792.654 2675.09C797.664 2703.04 800.801 2731.17 799.158 2759.55C863.833 2778.23 890.705 2809.38 944.516 2747.13C941.916 2743.17 940.416 2738.31 938.67 2733.62C931.234 2713.26 925.088 2692.21 923.036 2670.57ZM135.906 2578.89C135.295 2580.25 134.193 2581.36 132.605 2581.85C132.039 2584.35 131.454 2586.85 130.83 2589.35C129.78 2602.23 124.922 2614.99 119.898 2626.87L118.873 2629.33C115.559 2639.22 112.085 2649.08 108.658 2658.95C106.062 2669.21 103.775 2679.55 101.385 2689.85C100.924 2696.84 99.9321 2703.77 98.4071 2710.62C98.3361 2710.94 98.2411 2711.24 98.1361 2711.52C100.531 2712.59 102.843 2713.82 105.023 2715.08C170.639 2764.4 159.307 2731.42 222.308 2703.81C221.946 2701.16 223.273 2698.76 224.356 2696.02L224.496 2695.66C224.562 2695.48 224.627 2695.31 224.693 2695.13C224.589 2694.09 224.65 2692.96 224.927 2691.77C231.308 2665.65 240.193 2640 248.509 2614.45C249.84 2610.6 251.381 2606.84 252.956 2603.09C213.01 2602.57 173.498 2591.93 135.906 2578.89ZM118.625 2591.58C117.852 2594.99 117.011 2598.36 116.243 2601.61L115.112 2606.46C116.721 2601.55 117.99 2596.58 118.625 2591.58ZM498.623 485.155C484.72 488.539 470.473 489.921 456.49 492.728C360.121 504.225 286.237 572.59 222.594 640.47C102.035 767.147 31.8921 923.016 37.0691 1099.18C80.1222 1107.03 122.731 1118.51 166.596 1121.02C160.221 1111.36 170.897 1099.28 174.572 1090.03C238.019 967.401 287.008 832.027 326.789 702.922L325.708 708.557C313.217 773.353 298.667 837.874 276.459 900.116C282.892 893.789 388.57 809.709 380.31 837.511C348.023 862.756 311.556 882.761 277.725 905.928C317.95 1040.35 259.797 1176.55 248.748 1311.02C245.972 1340.92 246.213 1371.03 242.482 1400.82C241.063 1404.19 242.557 1411.04 240.468 1414.25C242.015 1422.15 245.269 1429.36 251.984 1435.53C254.811 1438.13 257.897 1440.38 261.141 1442.38C269.24 1443.61 277.375 1446.73 283.971 1449.62C298.648 1456.05 311.565 1465.53 324.684 1474.58L325.035 1474.82C346.188 1485.69 367.319 1498.04 388.528 1510.92L389.475 1511.42C397.364 1515.56 405.43 1519.3 412.304 1525.04C412.617 1525.3 412.826 1525.6 412.963 1525.92L425.846 1533.88C529.032 1597.58 635.424 1660.58 756.404 1615.11C790.395 1601.41 839.81 1573.66 833.464 1530.75C832.213 1526.64 830.31 1522.77 828.158 1519.01C827.56 1518.2 826.945 1517.41 826.326 1516.62C821.638 1510.7 816.391 1505.26 812.32 1498.86C810.664 1496.25 809.179 1493.57 807.88 1490.81C806.962 1490.53 806.146 1489.89 805.632 1488.76C799.809 1476.06 794.105 1463.33 788.793 1450.4C724.391 1225.81 802.562 984.488 824.677 757.957C826.21 744.985 828.467 731.881 828.461 718.815C828.461 718.202 829.349 718.222 829.398 718.815C837.198 776.633 831.281 834.989 823.865 892.546C814.37 964.55 801.895 1036.25 793.324 1108.39C816.109 1181.1 879.919 1233.64 946.922 1265.14C958.322 1270.56 969.978 1275.39 981.863 1279.64L982.661 1279.92C995.72 1284.49 1010.46 1291.55 1023.06 1282.29C1047.24 1265.88 1064.3 1240.83 1079.97 1216.71C1073.63 1216.02 1067.29 1215.43 1060.94 1214.99C1045.34 1232.84 1026.23 1247.99 1006.06 1260.37C997.846 1265.08 988.51 1263.08 984.711 1253.86C981.125 1245.16 985.516 1234.99 988.695 1226.6L989.154 1225.38C1005.25 1181.96 1033.19 1142.18 1070.92 1114.99C1042.46 1109.3 1012.89 1109.47 985.581 1098.22C987.07 1099.78 985.119 1101.53 984.171 1102.86C984.508 1105.43 982.639 1107.31 980.342 1108C958.06 1137.12 941.173 1171.61 937.647 1208.55C938.585 1221.13 927.332 1235.65 916.496 1222.45C908.021 1185.68 941.359 1128.22 970.674 1105.53C941.277 1085.35 949.846 1056.22 931.39 1056.08C926.621 1065.24 920.398 1074.01 912.555 1080.81C909.01 1083.69 904.705 1085.87 900.9 1088.43C896.898 1091.12 892.732 1085.2 895.901 1081.95L896.737 1080.94C908.774 1066.54 923.068 1052.38 925.554 1032.9C929.148 1008.9 918.367 984.593 910.103 962.674C894.26 920.653 883.752 876.931 878.633 832.314C872.834 792.338 879.886 750.872 866.205 712.188C863.486 701.415 859.575 691.603 854.781 682.497C854.667 682.402 854.554 682.305 854.451 682.186C848.76 675.601 844.214 668.276 838.908 661.379C833.359 654.164 827.343 647.298 820.971 640.801C810.322 629.945 798.565 620.887 786.309 612.165C786.082 612.083 785.853 611.977 785.623 611.841C783.327 610.484 781.122 608.836 778.994 607.025L778.787 606.881C771.66 601.926 764.387 596.548 758.824 589.821C753.364 583.216 749.478 575.514 745.02 568.239C738.926 560.803 733.117 552.836 725.768 546.64C721.611 544.266 717.285 542.029 713.575 539.06C712.968 538.806 712.351 538.565 711.723 538.337C713.304 544.785 715.696 550.718 717.851 557.268C720.973 555.95 725.246 557.411 725.771 562.222L725.965 564.018C729.1 593.48 730.687 629.132 713.365 654.642C675.223 709.961 618.252 662.731 589.439 623.833C563.582 592.81 541.844 558.302 525.791 521.216L525.525 520.726C522.536 515.05 516.058 497.744 514.227 489.428C509.598 486.99 503.966 485.809 498.623 485.155ZM376.508 1516.2C376.392 1516.35 376.26 1516.47 376.116 1516.58C381.526 1524.27 386.68 1532.22 391.992 1539.93C387.637 1532.81 383.543 1525.63 379.918 1518.38C378.784 1517.65 377.644 1516.93 376.508 1516.2ZM73.7561 1217.63C94.4301 1329.89 123.975 1448.01 206.299 1531.95C180.678 1495.85 160.754 1453.71 154.957 1409.58C154.717 1397.73 159.03 1385.22 172.134 1383.46C174.371 1383.16 176.069 1385.17 176.868 1386.95L176.945 1387.13C182.1 1399.43 188.803 1411.14 196.74 1421.86L197.518 1422.88C203.508 1430.63 228.93 1462.2 232.476 1447.11C229.88 1370.81 151.037 1339.35 138.125 1234.26C116.033 1231.92 95.0691 1223.53 73.7561 1217.63ZM243.249 1440.31C243.334 1441.51 243.375 1442.7 243.357 1443.87C244.528 1443.38 245.732 1442.99 246.963 1442.69C245.713 1441.92 244.477 1441.12 243.249 1440.31ZM242.08 1432.09C242.513 1434.29 242.879 1436.5 243.104 1438.69C245.354 1439.4 247.58 1440.19 249.794 1441C248.452 1439.8 247.175 1438.52 245.978 1437.16C244.583 1435.57 243.275 1433.87 242.08 1432.09ZM272.549 911.25C256.4 956.327 238.312 1000.71 218.117 1044.13C204.557 1069.53 195.51 1099.14 176.746 1121.18C176.563 1121.36 176.379 1121.52 176.191 1121.68L176.502 1121.69C182.093 1121.94 212.474 1124.93 196.879 1131.8C190.824 1155.66 182.891 1178.98 176.258 1202.68L176.11 1203.37C173.683 1214.84 170.615 1237.93 154.329 1230.22C152.562 1231.58 150.441 1232.53 148.16 1233.16C155.48 1297.41 196.111 1339.24 228.23 1391.69C221.05 1364.01 223.149 1335.1 225.649 1306.83L226.268 1299.88C239.539 1170.27 288.241 1042.82 272.549 911.25ZM407.428 1323.22C381.251 1290.59 252.497 967.481 343.486 1163.23C375.825 1231.38 402.444 1304.33 455.795 1359.55C459.484 1363.51 454.624 1370.48 449.83 1367.28C432.609 1355.78 418.671 1340.53 407.428 1323.22ZM314.243 932.7C314.135 932.176 314.806 931.888 315.101 932.337C350.084 1001.41 375.062 1075.63 414.589 1142.61C438.449 1184.09 467.08 1222.75 499.866 1257.61C502.329 1260.23 498.623 1263.85 495.955 1261.52C402.363 1175.17 356.86 1049.64 314.243 932.7ZM1004.06 1217.06L1004 1217.07L1003.14 1219.3C1002.85 1220.05 1002.55 1220.81 1002.25 1221.57C1002.39 1221.51 1002.54 1221.45 1002.68 1221.39C1002.99 1221.08 1003.29 1220.77 1003.6 1220.44C1003.53 1219.3 1003.67 1218.16 1004.06 1217.06ZM23.7641 1089.43C19.0121 1091.29 13.1741 1091.64 7.92114 1092.1C13.8021 1119.81 18.8791 1147.73 24.2021 1175.51C26.6631 1184.04 32.4491 1187.03 40.4571 1189.74L46.8933 1191.8C76.9398 1201.42 107.156 1211.31 138.138 1217.22C140.316 1215.8 143.41 1215.87 144.856 1218.14C146.363 1218.28 147.91 1218.37 149.439 1218.51C157.717 1187.94 171.882 1158.32 190.837 1132.96C137.856 1134.66 84.4921 1120.69 34.0901 1105.07C32.0491 1106.06 29.3611 1105.44 28.5001 1103.09L27.7239 1102.87C19.2624 1100.36 8.04311 1094.2 25.8251 1097.33C24.7511 1094.82 24.1551 1092.13 23.7641 1089.43ZM1242.02 1066.81C1206.9 1061 1180.06 1089.46 1150.09 1102.52C1132.14 1110.22 1084.32 1134.09 1066.94 1126.15C1043.1 1149.09 1022.98 1175.9 1008.91 1205.98C1012.74 1205.75 1016.58 1205.58 1020.42 1205.46C1027.37 1203.23 1034.78 1203.11 1042 1205.26C1114.27 1206.06 1186.59 1220.1 1258.57 1202.3L1260.22 1201.99C1275.01 1199.19 1325.49 1188.52 1328.37 1178.06C1327.61 1173.51 1314.04 1178.31 1311.43 1178.83C1290.68 1182.92 1269.61 1184.87 1248.58 1186.91C1242.74 1187.48 1242.81 1178.38 1248.58 1177.8C1273.89 1175.29 1297.86 1165.79 1321.08 1155.9C1323.55 1154.81 1330.09 1152.54 1334.61 1149.6C1313.16 1153.25 1291.05 1153.88 1269.35 1153.11C1261.87 1152.14 1261.35 1140.79 1269.35 1141.01C1284 1142.63 1298 1135.4 1309.96 1127.76L1312.57 1126.07C1332.51 1113.07 1331.11 1112.51 1305.91 1117.34C1268.88 1124.09 1231.41 1123.84 1194.01 1121.26C1188.67 1121.17 1184.99 1113.99 1189.4 1110.14C1206.62 1095.27 1225.08 1082.01 1242.02 1066.81ZM1072.27 1120.96L1071.86 1121.35C1071 1122.17 1070.29 1122.9 1069.9 1123.29L1069.74 1123.44C1069.21 1123.94 1068.7 1124.45 1068.17 1124.96C1070.47 1125.73 1073 1125.77 1075.62 1125.37C1074.04 1124.38 1072.87 1122.77 1072.27 1120.96ZM412.397 1001.94L412.595 1002.15C435.185 1026.6 458.082 1066.24 476.798 1097.51C479.265 1123.13 423.929 1016.81 412.483 1002.05L412.397 1001.94ZM980.947 1096.52C981.166 1096.79 981.377 1097.07 981.581 1097.36L981.883 1097.79L982.369 1097.49C982.548 1097.38 982.736 1097.32 982.928 1097.27C982.266 1097.02 981.607 1096.77 980.947 1096.52ZM877.59 1013.07C897.916 1016.26 856.352 1041.51 850.866 1045.13C847.353 1046.47 813.952 1074.04 815.978 1065.09L816.923 1063.88C832.479 1044.09 853.679 1021.45 877.59 1013.07ZM82.4614 960.145C89.9794 948.037 130.894 963.976 143.827 965.885C151.097 967.804 158.288 970.076 165.636 971.688C171.378 973.77 198.152 971.752 188.326 983.103C178.073 988.614 164.687 984.354 154.187 981.428C133.296 975.721 112.333 969.063 90.9404 965.896C90.2984 965.575 90.2594 965.792 90.8214 966.549C95.4234 976.775 105.101 986.369 116.002 989.665C116.755 989.883 116.438 991.034 115.676 990.84C103.778 988.478 76.0684 975.276 82.4614 960.145Z" fill="black"/>
<path fill-rule="evenodd" clip-rule="evenodd" d="M781.164 173.671C777.311 150.312 789.956 145.466 781.164 123.261C761.623 82.117 708.371 83.8898 669.293 80.7263C625.708 79.0523 581.593 84.8186 541.412 102.325C531.814 106.506 522.583 111.423 513.733 117.01C506.081 121.841 507.133 131.027 511.958 136.038C477.167 185.41 497.066 251.682 469.305 303.651C464.177 312.941 457.394 321.271 452.937 330.937C446.161 345.63 445.727 366.682 461.093 376.44C482.734 388.08 494.81 365.033 505.444 398.443C558.55 514.933 665.323 521.493 766.685 460.76C775.454 455.871 784.404 450.346 791.026 442.667C806.057 425.715 804.287 401.877 804.619 380.709C804.805 368.304 804.836 355.896 804.715 343.489C804.242 293.231 787.62 223.515 781.164 173.671Z" fill="#EDB98A"/>
<path fill-rule="evenodd" clip-rule="evenodd" d="M565.272 33.9576C626.473 6.13755 695.887 -4.41245 762.646 2.50755C795.597 5.91775 828.114 13.2341 859.06 25.1187L861.772 26.1692C869.411 29.1156 877.646 32.0401 883.451 38.0376C890.207 45.0076 892.102 55.5476 887.273 64.1576C883.521 70.8476 876.775 75.6465 869.58 78.2076C872.115 80.2875 874.52 82.6076 876.775 85.1976C880.577 89.5376 880.866 95.7266 876.775 100.008C868.891 108.258 858.663 114.227 847.646 117.088C848.884 123.078 848.215 129.708 845.561 135.678C837.944 152.814 816.488 154.857 799.977 153.839L799.478 153.808L798.56 164.338C798.071 169.948 794.718 174.298 789.03 175.158C788.831 175.188 788.63 175.208 788.432 175.227C797.433 207.848 802.871 241.477 807.89 274.908C810.513 292.359 812.861 309.85 815.108 327.353L815.854 333.188C818.249 352.058 821.242 371.118 822.28 390.128C823.208 407.378 819.925 423.848 809.317 437.768C799.798 450.248 786.815 459.598 772.854 466.538C741.311 482.227 708.111 493.908 673.225 499.328L670.899 499.686C657.432 501.746 643.558 503.482 630.236 499.748C618.532 496.468 606.257 488.008 608.901 474.418C609.789 469.828 616.196 469.628 618.391 473.178L618.898 473.991C621.53 478.177 624.415 482.067 629.01 484.227C634.387 486.768 640.624 487.477 646.502 487.548C662.917 487.738 680.011 483.638 695.817 479.528C725.335 471.849 755.651 459.328 779.83 440.358C790.118 432.298 798.381 422.218 801.294 409.248C804.897 393.258 801.584 375.778 799.947 359.708C796.579 326.548 792.571 293.45 788.342 260.389L787.494 253.778C783.932 226.138 780.19 198.488 778.413 170.688C777.674 169.678 777.175 168.528 776.976 167.268L776.697 165.458C776.457 163.908 776.417 162.488 776.587 161.178C776.597 156.158 776.736 151.168 777.026 146.147C777.075 145.248 777.115 144.348 777.145 143.458C771.936 144.608 766.688 145.538 761.419 146.328C724.377 151.918 686.757 153.318 649.415 150.538C630.785 149.147 612.295 146.758 593.863 143.768C584.482 142.248 575.133 140.568 565.812 138.688C559.076 137.338 552.48 135.508 545.854 133.788C539.019 143.758 535.327 156.028 536.045 168.078C536.853 181.828 545.994 194.298 543.43 208.348C541.023 221.497 529.781 225.574 518.683 228.83L513.962 230.197C510.331 231.259 507.694 232.284 507.036 236.658C505.909 244.168 507.296 252.618 507.585 260.168C507.935 269.098 508.393 278.028 508.603 286.958C508.713 291.578 508.892 296.218 508.883 300.838C508.873 304.118 508.384 306.358 507.116 308.477C508.094 309.708 508.971 311.038 509.751 312.448C510 312.908 509.382 313.397 509.013 313.018C508.024 311.988 506.976 311.058 505.869 310.227C505.31 310.918 504.661 311.618 503.902 312.368L503.843 312.288C501.468 314.658 497.696 314.888 494.751 312.368L493.979 311.697C491.823 309.803 490.342 308.227 489.743 305.098C489.713 304.938 489.682 304.778 489.663 304.618C484.185 304.428 478.617 305.727 473.687 308.458C465.873 312.788 460.375 318.958 457.123 326.578C458.419 328.098 459.936 329.458 461.702 330.598C461.952 330.768 461.732 331.138 461.463 331.008C459.657 330.158 458.04 329.108 456.593 327.878C455.426 330.878 454.607 334.098 454.108 337.508C452.352 349.548 455.485 364.258 466.342 371.118C471.043 374.088 476.411 375.698 481.979 375.718C484.693 375.727 487.039 375.268 489.673 374.618C491.459 374.178 493.236 373.538 495.102 373.538C496.698 373.538 498.175 373.938 499.542 374.738L499.163 374.771C498.242 374.858 498.419 374.897 499.702 374.897C503.694 375.068 505.978 379.128 504.143 382.658L503.902 383.203C503.851 383.313 503.808 383.404 503.774 383.477L503.629 384.413C503.615 384.502 503.6 384.594 503.584 384.688L503.528 384.877C503.518 384.908 503.507 384.938 503.494 384.968L509.48 394.116C516.82 405.307 524.323 416.455 532.862 426.678C538.849 433.848 545.196 440.878 551.902 447.388C557.929 453.238 565.154 456.058 571.979 460.658C575.622 463.098 576.689 468.208 573.377 471.498C563.657 481.168 549.896 473.488 541.923 465.628C534.379 458.178 527.862 449.218 522.244 440.248C512.275 424.298 504.342 407.338 500.87 388.928C499.423 390.258 497.576 391.088 495.71 391.738C491.968 393.038 487.847 393.578 483.895 393.718C476.321 393.968 468.737 392.128 461.922 388.868C434.19 375.618 430.119 335.938 447.073 312.538C444.787 305.894 443.51 298.685 442.123 292.538L441.492 289.79C434.482 259.098 429.774 226.783 442.204 196.708C443.8 192.828 445.596 189.048 447.722 185.428C449.428 182.518 452.362 179.418 453.17 176.108C454.967 168.838 443.88 161.198 440.647 155.428C436.845 148.658 436.306 140.668 441.485 134.477C442.144 133.698 442.861 132.977 443.64 132.348C438.731 123.428 438.501 112.208 444.968 103.408C449.219 97.6076 455.705 93.5476 462.79 92.3176C467.121 91.5676 472.33 91.8476 477.09 93.1876C503.154 68.9376 532.892 48.6776 565.272 33.9576ZM465.184 337.388C472.141 331.238 479.825 328.018 489.304 328.828C498.834 329.647 510.31 333.598 515.907 341.788C520.329 348.258 511.318 357.748 504.832 352.888C498.924 348.458 494.981 343.458 487.648 341.078C481.061 338.948 472.908 337.578 466.013 338.798C465.254 338.928 464.497 337.988 465.184 337.388Z" fill="black"/>
<path fill-rule="evenodd" clip-rule="evenodd" d="M701.149 418.376C694.427 415.634 688.429 411.06 684.044 405.216C682.519 403.185 682.124 401.04 682.444 399.077C682.803 396.871 684.108 394.872 685.888 393.531C687.674 392.185 689.907 391.522 692.067 391.86C693.943 392.154 695.811 393.181 697.289 395.312L697.598 395.738C700.205 399.265 703.602 402.159 707.473 404.024C711.204 405.822 715.376 406.661 719.694 406.173C727.918 405.244 733.586 400.796 739.611 394.757C740.358 393.994 741.105 393.208 741.856 392.409C742.33 391.684 742.988 391.219 743.719 390.974C744.53 390.703 745.448 390.719 746.289 391.012C747.099 391.295 747.824 391.831 748.31 392.544C748.772 393.223 749.034 394.06 748.949 395.024C748.397 401.283 745.125 406.869 740.477 411.255C735.314 416.127 728.471 419.497 722.028 420.679C714.931 421.981 707.698 421.048 701.149 418.376ZM725.377 321.817C732.928 326.407 744.434 337.11 736.311 348.489C726.748 358.523 712.981 347.019 706.197 341.816C699.906 337.784 692.838 348.154 698.674 352.863C747.698 389.158 767.593 323.017 729.196 316.42C724.968 315.693 723.398 320.397 725.377 321.817ZM637.526 279.596C638.36 269.24 654.133 266.888 655.702 277.136C657.107 286.316 655.453 294.749 651.318 303.014C647.367 310.91 637.436 307.226 636.685 300.036C635.679 290.399 637.007 286.039 637.526 279.596ZM757.589 275.011C759.788 272.131 762.963 270.165 766.767 271.276C778.652 274.749 775.149 291.622 770.975 299.835C768.707 304.295 761.376 305.426 758.063 301.499C752.663 295.095 750.077 282.306 756.942 275.998C757.128 275.672 757.335 275.343 757.589 275.011ZM651.15 234.28L653.028 233.952C658.836 232.947 666.057 231.982 670.165 236.651C672.344 239.127 673.094 243.729 670.165 246.099C665.013 250.269 659.317 248.653 653.143 249.006C648.055 249.298 643.165 250.14 638.264 251.541C627.512 254.614 618.751 260.224 609.568 266.384C608.363 267.192 607.133 265.651 607.708 264.524C613.009 254.141 623.282 245.612 633.572 240.413C639.064 237.638 645.074 235.336 651.15 234.28ZM746.755 229.629L748.192 229.923C763.829 233.192 784.146 239.721 791.551 255.081C791.833 257.253 791.535 257.718 791.293 258.022L791.212 258.123C791.012 258.383 790.853 258.741 789.911 259.037C789.65 258.974 789.386 258.909 789.12 258.839C785.725 257.949 783.04 256.724 780.44 255.452L777.621 254.063C774.35 252.46 771.051 250.915 767.554 249.774C760.092 247.34 752.417 245.625 744.622 244.71C742.933 244.511 741.306 243.941 740.023 242.964C738.805 242.037 737.874 240.752 737.45 239.045C736.9 236.836 737.058 235.164 738.243 233.171C739.134 231.674 740.409 230.637 741.874 230.041C743.366 229.434 745.066 229.291 746.755 229.629Z" fill="black"/>
</svg>
