<svg width="784" height="1160" viewBox="0 0 784 1160" fill="none" xmlns="http://www.w3.org/2000/svg">
<path d="M666 738H437V1020H666V738Z" fill="#FDEA6B"/>
<path fill-rule="evenodd" clip-rule="evenodd" d="M370.207 462.173C394.892 443.376 456.865 434.923 483.211 453.022C509.233 471.197 512.07 500.588 524.196 527.626C535.637 522.231 554.531 529.958 557.848 540.574C561.962 545.581 562.146 559.648 564.983 566.379C688.425 586.028 707.166 682.267 722.024 791.525C741.68 902.394 786.301 1013.02 766.93 1127.11C769.454 1130.76 771.444 1134.31 773.284 1138.53C777.693 1146.03 772.014 1156.65 763.121 1156.24C751.61 1155.22 740.213 1153.84 728.648 1153.41C696.588 1152.3 664.499 1152.43 632.427 1152.84L628.054 1152.9C466.421 1154.91 304.797 1158.87 143.157 1159.93C137.293 1159.93 134.422 1154.67 135.205 1149.49C136.782 1139.04 138.245 1128.59 139.772 1118.14C101.54 1128.24 60.8961 1130.78 22.7721 1119.2C20.1051 1116.49 28.9861 1117.96 30.3951 1117.55C-4.69093 1093.57 5.78707 1043.07 8.89507 1006.69C28.2211 882.036 35.0341 744.118 109.703 637.751C142.006 594.343 189.365 559.975 243.784 552.242L245.294 552.035C261.206 549.914 278.94 549.23 292.852 540.574C308.499 528.083 315.167 505.002 331.629 504.786C337.064 504.715 344.459 511.591 352.416 516.26C353.01 505.989 358.545 497.322 359.767 489.359L359.866 488.678C361.141 479.393 359.395 471.041 370.207 462.173ZM635.495 794.818C600.805 770.719 511.192 782.828 509.14 784.177C504.623 787.148 502.678 787.411 500.235 791.269C497.823 791.589 495.413 791.921 493.005 792.263C488.174 793.841 491.754 799.783 497.334 797.663C493.978 812.137 503.855 822.431 507.787 836.74C509.064 841.387 507.833 849.743 507.787 854.49C508.168 860.543 514.861 867.693 513.745 873.765C509.78 895.354 488.262 916.414 497.334 937.351C503.344 949.176 521.42 955.206 533.438 959.226C558.337 968.782 601.721 958.866 616.188 937.351C623.905 925.875 632.845 896.928 637.446 887.949L638.465 873.705C640.98 838.298 643.217 800.183 635.495 794.818Z" fill="#EDB98A"/>
<path fill-rule="evenodd" clip-rule="evenodd" d="M330.345 504.85L340.273 510.942L397.931 539.445C409.109 542.574 414.698 546.325 414.698 550.697V595.217C414.698 601.174 425.188 614.676 446.167 635.723L465.548 616.401L465.115 613.872C463.271 602.971 462.348 595.68 462.348 591.997C462.348 588.036 481.31 573.001 519.234 546.891L535.825 531.271L534.056 525.891C544.285 526.374 555.379 532.674 557.848 540.574C561.962 545.581 562.146 559.648 564.983 566.379C688.425 586.028 707.166 682.267 722.024 791.525C741.68 902.394 786.301 1013.02 766.93 1127.11C769.454 1130.76 771.444 1134.31 773.284 1138.53C777.693 1146.03 772.014 1156.65 763.121 1156.24C751.61 1155.22 740.213 1153.84 728.648 1153.41C696.588 1152.3 664.499 1152.43 632.427 1152.84L628.054 1152.9C466.421 1154.91 304.797 1158.87 143.157 1159.93C137.293 1159.93 134.422 1154.67 135.205 1149.49C136.782 1139.04 138.245 1128.59 139.772 1118.14C101.54 1128.24 60.8961 1130.78 22.7721 1119.2C20.1051 1116.49 28.9861 1117.96 30.3951 1117.55C-4.69093 1093.57 5.78707 1043.06 8.89507 1006.69C28.2211 882.036 35.0341 744.118 109.703 637.751C142.006 594.343 189.365 559.975 243.784 552.242L245.294 552.035L246.815 551.837C262.328 549.862 279.381 548.955 292.852 540.574C308.086 528.412 314.809 506.213 330.345 504.85ZM468.502 766.156C462.847 766.156 451.265 774.938 433.757 792.502L432.214 793.215C411.05 803.046 397.028 811.574 390.151 818.799L389.905 819.059C382.958 826.513 369.199 846.333 348.63 878.519L318.844 896.134H307.573L299.549 954.338L318.844 995.897L362.547 981.176L433.757 962.406L474.619 920.951L497.669 913.213C494.872 921.292 493.859 929.331 497.334 937.351C503.344 949.176 521.42 955.206 533.438 959.226C558.337 968.782 601.721 958.866 616.188 937.351C623.905 925.875 632.845 896.928 637.446 887.949L638.765 869.446C641.143 835.301 642.909 799.968 635.495 794.818C600.805 770.719 511.192 782.828 509.14 784.177C504.623 787.148 502.678 787.411 500.235 791.269L498.971 791.438L506.082 781.793L503.564 780.449C485.596 770.92 473.909 766.156 468.502 766.156ZM497.334 797.663C494.121 811.52 503.037 821.546 507.253 834.931L496.48 814.307L496.479 797.93C496.758 797.862 497.044 797.773 497.334 797.663Z" fill="#FFCF77"/>
<path fill-rule="evenodd" clip-rule="evenodd" d="M325.585 502.698C327.98 500.577 331.524 503.242 330.002 506.107C326.582 512.546 323.074 518.647 318.484 524.339C315.701 527.79 312.72 531.054 309.699 534.282C317.452 540.989 324.101 549.316 330.38 557.12C338.409 567.101 346 577.505 355.013 586.638C363.901 595.645 373.73 601.942 385.614 606.14L388.014 606.974C399.952 611.165 412.711 616.825 419.441 628.128C420.768 630.357 418.096 633.111 415.85 631.72C404.157 624.48 390.418 623.024 377.69 618.24C365.395 613.619 354.677 606.507 345.207 597.43C335.753 588.368 327.815 578.058 319.535 567.966C311.347 557.987 302.531 549.464 292.846 541.021C277.9 551.076 260.84 555.45 243.493 559.747L241.6 560.216C224.232 564.516 206.957 569.51 190.663 576.998C176.297 583.599 162.167 591.482 150.465 602.224C138.043 613.624 128.375 628.184 119.526 642.423C99.7315 674.279 85.8155 709.179 73.5645 744.503C60.8225 781.245 50.1645 818.723 41.5605 856.646C37.1845 875.936 33.6305 895.363 30.7095 914.926C29.3035 924.348 28.0545 933.79 26.9575 943.253C25.7865 953.358 25.5175 963.754 22.4175 973.47C21.0885 977.634 17.9505 979.362 14.8095 979.215L14.1715 987.194C13.3256 997.832 12.5369 1008.47 12.2705 1019.18C11.8286 1036.98 12.029 1054.72 13.3092 1072.48L13.4905 1074.9C14.4965 1087.87 16.7445 1102.43 26.4915 1111.92C36.5855 1121.75 52.1085 1124.84 65.7135 1125.02C97.4005 1125.43 127.903 1110.46 155.943 1097.33C184.821 1083.8 212.91 1068.78 240.326 1052.5C254.288 1044.21 268.099 1035.64 281.734 1026.82C288.425 1022.49 295.069 1018.09 301.663 1013.61C305.44 1011.05 309.019 1008.24 312.864 1005.97C310.98 1004.22 310.139 1001.46 311.717 999.05C300.602 989.402 295.976 972.185 295.435 958.254C294.998 947.009 296.653 935.796 297.959 924.657C298.618 919.04 299.432 913.433 300.277 907.841C300.611 905.632 300.866 903.269 301.256 900.937C271.243 917.43 240.389 932.118 208.718 945.167C192.484 951.856 176.042 957.87 159.373 963.381L155.994 964.493C140.2 969.663 124.028 974.546 107.701 977.502C106.828 977.66 106.119 976.371 107.051 975.96C122.963 968.939 139.426 963.017 155.577 956.551L158.231 955.47C157.926 955.453 157.61 955.411 157.28 955.332C147.808 953.046 138.41 949.523 129.12 946.557C120.498 943.804 110.811 942.075 102.752 937.919C102.132 937.599 102.479 936.737 103.083 936.696C112.141 936.068 121.974 938.708 130.855 940.261L134.191 940.846C139.78 941.831 145.493 942.89 151.055 944.272C151.256 942.409 152.297 940.538 153.778 939.441C170.075 927.372 168.42 902.996 170.163 885.021L171.455 871.676C173.728 848.321 176.134 824.969 179.788 801.788C179.983 800.55 181.898 800.905 181.906 802.074C182.094 830.809 179.925 859.411 178.838 888.101L178.669 892.807C178.068 910.51 177.597 928.892 166.448 942.514C168.007 941.603 170.115 941.603 171.378 943.105C172.93 944.952 173.826 947.026 173.798 949.061C183.873 944.837 193.904 940.503 203.886 936.081C235.979 921.863 267.399 905.952 297.988 888.736C301.28 886.883 304.409 888.339 306.037 890.782L306.271 890.748C306.311 890.743 306.351 890.739 306.392 890.738L306.625 890.728C306.634 890.728 306.643 890.729 306.651 890.729C310.957 888.363 316.823 890.048 320.518 893.499C320.627 893.603 320.72 893.715 320.817 893.825C325.495 891.725 329.863 888.89 333.827 885.297C341.939 877.945 348.81 868.854 354.8 859.738C365.831 842.948 375.201 824.277 390.102 810.456C402.209 799.227 417.219 792.236 432.966 787.847C432.9 787.387 433.076 786.897 433.394 786.571C434.203 785.742 434.78 785.455 435.825 785.958C435.908 785.999 435.958 786.055 435.992 786.115L437.528 783.49C438.367 782.065 439.228 780.63 439.527 780.253C441.315 778.002 443.155 775.768 445.023 773.581C448.19 769.878 451.799 766.224 455.978 763.656C465.128 758.035 474.747 761.216 484.154 764.288C489.838 766.145 495.503 768.062 501.177 769.947L501.762 770.138C505.993 771.498 510.944 772.687 512.836 777.169C513.585 778.943 513.701 780.784 513.352 782.57C553.535 772.351 598.167 777.046 637.38 789.042C638.885 789.502 640.389 790.74 640.706 792.366C645.199 815.407 647.2 839.036 645.167 862.47C643.413 882.698 638.93 902.521 630.484 921.04L630.004 922.086C622.067 939.248 609.486 960.405 590.273 965.784C578.672 969.032 565.842 967.117 554.01 966.522C542.511 965.943 530.757 965.859 519.367 964.051C509.223 962.441 500.334 957.894 494.065 949.646C488.657 942.53 485.81 933.93 483.477 925.375C482.409 925.715 481.348 926.076 480.304 926.485C475.897 928.206 472.163 930.984 468.787 934.253C461.658 941.157 456.128 949.542 448.669 956.13C441.917 962.094 434.223 966.732 425.97 970.298C408.868 977.687 390.522 980.64 372.433 984.556L371.172 984.831C357.554 987.819 343.654 991.488 331.634 998.578C331.399 1000.67 330.448 1002.63 328.924 1003.92C331.044 1005.91 331.942 1009.06 330.079 1012.02C324.875 1020.28 315.911 1024.97 307.864 1030.26L307.341 1030.6C299.425 1035.85 291.44 1040.99 283.39 1046.03C267.025 1056.28 250.318 1065.96 233.375 1075.22C206.124 1090.1 178.288 1104.15 149.948 1116.88C151.649 1125.25 151.027 1133.88 152.305 1142.31L152.502 1143.51C153.048 1146.63 152.31 1149.25 150.156 1151.29L149.929 1151.5L149.933 1151.47L149.731 1151.66L149.663 1151.72L149.686 1151.7C149.437 1151.93 149.181 1152.14 148.92 1152.32L148.588 1152.53C146.513 1153.79 143.843 1153.78 141.719 1152.67L141.477 1152.53L141.069 1152.3C138.263 1150.68 136.328 1146.69 137.492 1143.51C140.353 1135.7 141.434 1127.37 144.076 1119.51L141.98 1120.44L139.217 1121.65C109.339 1134.57 76.1507 1145.45 43.5965 1136.64C29.2125 1132.75 15.7685 1124.51 8.57152 1111.09C1.48952 1097.89 0.488518 1082.55 0.112518 1067.86C-0.351482 1049.73 0.620516 1031.32 3.01152 1013.35C4.61652 1001.28 6.55752 988.988 9.55152 977.047C8.01152 975.688 6.87952 973.739 6.58052 971.325C5.16752 959.92 7.64052 948.063 9.15452 936.717C10.6335 925.639 12.2675 914.583 14.1155 903.561C17.8465 881.302 22.1815 859.09 27.2285 837.092C36.2105 797.941 48.0715 759.486 62.3515 721.95L63.6021 718.681C76.7975 684.372 92.0759 650.794 113.351 620.654C123.528 606.234 134.286 593.16 148.666 582.769C162.138 573.033 177.334 566.023 193.016 560.665C208.715 555.303 224.851 551.71 241.272 549.475C257.949 547.205 275.552 545.813 291.109 538.973C289.141 535.445 290.83 530.682 294.142 528.494C305.288 521.13 315.595 511.55 325.585 502.698ZM682.39 822.919C682.857 822.21 683.966 822.658 683.761 823.497C678.34 845.706 673.251 867.96 669.928 890.593C663.93 931.443 665.033 972.826 665.523 1013.98L665.548 1016.11C665.8 1038.27 666.15 1060.44 666.883 1082.6C667.253 1093.8 667.985 1105.1 667.587 1116.31C667.37 1122.39 665.75 1128.13 665.176 1134.14C664.673 1139.39 665.121 1144.72 665.372 1149.98C665.54 1153.48 660.38 1153.33 660.029 1149.98L659.58 1145.65C658.997 1140.17 658.277 1134.73 656.481 1129.48C654.322 1123.18 653.286 1116.98 652.537 1110.36C651.39 1100.21 650.88 1089.96 650.437 1079.75L650.134 1072.68C648.285 1029.97 648.35 987.069 651.343 944.409L651.562 941.362C654.526 901.038 659.669 857.469 682.39 822.919ZM566.835 568.773C565.419 568.191 565.915 566.05 567.483 566.423L570.335 567.103C591.229 572.108 611.745 577.53 631.247 586.843C650.762 596.161 667.284 610.072 680.412 627.178C705.932 660.429 716.537 700.839 724.909 741.211C734.213 786.072 742.684 831.097 752.069 875.944L753.812 884.297C762.496 926.067 770.695 967.86 776.736 1010.12L777.17 1013.19C783.262 1056.65 786.927 1101.62 780.279 1145.19C778.964 1153.81 764.618 1151.67 765.179 1143.15C766.799 1118.53 767.959 1094.03 766.838 1069.35C765.716 1044.67 763.401 1020.1 759.95 995.63C757.046 975.039 752.717 954.705 748.886 934.279L748.285 931.053C745.077 913.679 741.77 896.323 738.47 878.965L733.539 852.977C726.148 814.064 718.612 775.117 710.097 736.449L709.592 734.173C701.259 696.971 688.974 658.002 663.979 628.46C638.614 598.479 602.303 583.38 566.835 568.773ZM474.668 963.37C475.278 962.011 477.412 962.16 478.068 963.37C480.639 968.113 480.924 974.166 481.41 979.52L481.461 980.071C482.079 986.604 482.626 993.159 482.961 999.713C483.596 1012.15 483.9 1024.58 483.861 1037.03C483.821 1049.79 483.564 1062.54 482.876 1075.29L482.69 1078.7C482.062 1089.78 481.008 1102.13 475.745 1111.82C473.832 1115.34 468.629 1114.3 467.521 1110.74C463.891 1099.09 465.755 1085.27 466.686 1073.33L467.409 1064.01C468.125 1054.7 468.808 1045.38 469.349 1036.05C470.091 1023.29 470.703 1010.52 471.292 997.749C471.484 993.603 471.691 989.455 471.909 985.308L472.245 979.089C472.532 973.887 472.508 968.179 474.668 963.37ZM66.5205 979.89L68.1275 978.338C73.0605 973.51 79.2943 966.075 86.5868 966.536C89.4948 966.72 91.3478 969.134 90.7448 971.995C89.4568 978.111 83.2178 981.285 78.7268 985.019C73.8068 989.108 69.1698 993.479 64.5418 997.892C60.436 1001.81 56.4875 1005.83 52.6337 1009.98L51.1928 1011.54C49.8114 1013.05 39.9743 1021.95 41.0379 1024.26L41.0958 1024.36C41.3918 1024.8 40.8988 1025.41 40.4078 1025.25C36.1598 1023.91 36.4248 1020.27 38.0308 1016.58C41.1168 1009.49 46.5208 1002.94 51.2398 996.883C55.9461 990.845 61.0399 985.222 66.5205 979.89ZM490.062 802.137C486.777 794.373 474.676 794.536 467.806 795C450.506 796.169 431.788 800.546 416.395 808.632C400.436 817.015 389.686 830.447 380.068 845.3L379.618 845.997C370.243 860.57 361.214 877.821 346.534 887.841C339.057 892.946 330.326 897.607 321.254 899.626C320.631 900.721 319.622 901.588 318.299 901.903L317.684 902.044C315.1 902.614 311.086 903.246 307.619 902.868C307.642 904.564 307.624 906.247 307.667 907.854C307.789 912.459 307.841 917.084 307.841 921.692C307.843 931.347 307.324 941.021 307.727 950.675C308.084 959.214 309.29 968.136 313.39 975.769C316.397 981.369 320.366 985.075 325.157 988.613C336.943 981.43 350.27 977.052 363.796 973.76C380.154 969.779 396.903 967.122 412.889 961.724C420.583 959.125 427.98 955.724 434.682 951.105C441.795 946.2 447.228 939.564 452.818 933.073L453.691 932.065C459.396 925.522 465.621 919.261 473.684 915.714C480.627 912.658 489.778 912.114 495.849 907.386C499.023 904.912 499.288 901.322 499.622 897.646C495.734 898.202 491.619 897.311 487.744 896.857L485.736 896.621C482.072 896.186 478.492 895.708 474.885 894.775C474.215 894.602 474.215 893.592 474.885 893.419C479.148 892.318 483.373 891.849 487.744 891.337L488.77 891.209C492.724 890.691 496.881 889.908 500.76 890.778C501.456 888.13 502.461 885.602 503.871 883.07C505.85 879.513 509.595 875.48 510.101 871.325C510.252 870.084 509.963 868.621 509.378 867.524L509.176 867.15C508.93 866.709 508.639 866.264 508.213 865.989C508.166 866.044 508.066 866.107 507.849 866.175C504.864 867.115 502.26 865.654 500.878 863.402C495.011 864.13 488.608 863.885 483.106 864.128L477.543 864.397C471.598 864.67 465.384 864.789 459.799 863.588C459.019 863.421 458.783 862.123 459.564 861.789C466.431 858.852 474.761 857.915 482.113 856.787C486.219 856.156 490.355 855.676 494.473 855.121C497.215 854.751 500.125 854.14 502.966 853.993C510.089 845.126 506.251 831.138 496.338 827.32C492.727 828.907 489.48 827.984 485.535 827.645C481.597 827.307 477.649 827.078 473.695 827.095C465.772 827.13 457.376 829.214 449.53 828.317C448.254 828.17 447.068 826.472 448.337 825.436C454.342 820.535 462.95 818.937 470.573 817.893L472.154 817.681C474.71 817.346 477.818 816.857 481.042 816.566C481.771 815.144 483.079 814.069 485.044 813.802C485.628 813.722 486.215 813.675 486.801 813.625L486.792 813.567C491.584 813.337 491.376 805.243 490.062 802.137ZM161.993 953.562C161.908 953.693 161.815 953.817 161.717 953.937L161.565 954.113L162.353 953.793L161.993 953.562ZM573.684 784.788C553.514 782.621 533.315 783.078 513.085 783.66C511.467 788.952 505.835 793.462 500.378 793.632C504.652 800.137 505.093 808.941 502.096 815.84C508.459 818.373 513.94 822.923 517.268 829.403C521.883 838.386 521.28 848.382 516.719 856.684C520.612 860.208 522.909 865.931 522.679 871.325C522.422 877.34 518.837 882.478 515.858 887.458C512.639 892.844 512.531 897.586 511.542 903.618C510.095 912.446 504.14 917.8 496.479 921.144L496.887 922.746C498.862 930.434 501.319 938.546 506.965 944.168C514.226 951.401 525.492 951.333 535.087 951.792L535.549 951.814C544.335 952.253 553.117 952.768 561.899 953.266L568.487 953.634C578.599 954.19 588.31 954.257 596.565 947.572C610.042 936.66 619.281 918.601 625.129 902.614C637.403 869.058 637.55 832.233 631.916 797.285C613.021 791.195 593.416 786.908 573.684 784.788ZM405.945 840.46L406.093 840.47C410.246 840.944 413.099 844.307 414.115 848.296C415.591 854.094 414.867 859.336 418.418 864.57C422.071 869.952 424.317 874.261 424.848 880.91C425.066 883.646 424.966 886.375 425.575 889.053L426.017 890.93C426.486 892.93 426.869 894.857 426.636 897.005C426.423 898.964 425.469 900.49 423.504 901.118C417.101 903.166 412.157 898.448 410.503 892.481C409.074 887.327 410.982 881.185 408.966 876.345C407.849 873.662 405.789 871.418 404.625 868.717C403.472 866.04 402.893 863.243 402.708 860.333C402.357 854.829 407.225 848.216 404.509 843.229C403.931 842.165 404.586 840.427 405.945 840.46ZM320.892 783.661C325.228 782.78 330.147 780.761 334.423 782.439C336.621 783.303 337.707 785.983 335.85 787.846C332.626 791.078 327.94 791.258 323.597 792.021L323.215 792.089C318.08 793.039 312.936 793.94 307.785 794.794C298.094 796.399 288.38 797.818 278.632 799.024C268.62 800.263 258.58 801.366 248.526 802.196L244.634 802.516C236.141 803.195 227.304 803.707 218.971 802.406C217.76 802.217 217.955 800.454 218.971 800.145C228.1 797.382 238.114 796.641 247.552 795.472C257.586 794.227 267.603 792.912 277.594 791.352C287.569 789.794 297.531 788.122 307.456 786.274C311.942 785.44 316.421 784.569 320.892 783.661ZM477.347 774.79C473.542 773.443 469.356 771.447 465.233 772.115C458.123 773.267 451.795 780.194 446.167 784.756L448.992 784.207C463.452 781.428 482.6 778.434 494.737 787.627C494.768 787.574 494.793 787.521 494.828 787.468C495.808 785.98 496.943 784.819 498.182 783.546C498.3 783.434 498.414 783.319 498.527 783.202L499.195 782.49L497.667 781.961C494.392 780.803 490.512 779.308 489.899 779.09L489.857 779.075C485.682 777.661 481.502 776.263 477.347 774.79ZM358.545 471.716C357.95 464.063 369.861 464.126 370.451 471.716C371.738 488.286 368.009 504.699 359.983 519.226C359.924 519.332 359.859 519.426 359.797 519.526C364.817 522.138 369.894 524.644 375.084 526.884C381.723 529.75 388.487 532.36 395.372 534.574C401.6 536.578 409.273 537.369 414.509 541.539C425.55 550.331 421.402 568.577 419.278 580.404L418.946 582.271C417.889 588.357 417.124 594.601 419.69 600.442C422.43 606.681 427.971 611.309 432.914 615.773L433.912 616.678C438.291 620.667 443.295 625.515 446.507 630.923C449.439 624.861 453.436 619.907 457.662 614.33C460.677 610.35 458.531 609.038 456.365 605.15C454.28 601.408 453.262 597.419 453.914 593.15C455.117 585.266 461.418 579.571 467.69 575.292C475.097 570.241 483.364 566.499 491.021 561.8C506.755 552.146 522.078 541.108 535.883 528.849C536.264 528.51 536.924 528.954 536.619 529.417C525.714 546.004 512.927 560.337 497.212 572.503C490.84 577.436 484.146 581.528 477.407 585.829L475.47 587.073C472.764 588.825 469.389 591.168 468.166 594.152C466.935 597.153 469.56 599.419 470.973 601.905C475.46 609.799 473.295 617.165 467.976 623.86L467.728 624.169C462.442 630.683 458.436 636.741 456.52 645.063C452.403 662.94 458.137 681.561 464.14 698.343L464.377 699.005C467.624 708.051 471.075 717.031 473.896 726.222L474.672 728.763C477.228 737.219 479.321 745.56 476.454 754.254C475.479 757.211 471.446 757.91 469.771 755.127C463.862 745.313 462.389 733.503 458.685 722.713C455.075 712.197 450.93 701.871 447.443 691.312C442.953 677.717 439.948 663.083 441.579 648.823C441.531 648.74 441.478 648.662 441.438 648.574L440.295 646.074C437.178 639.304 434.168 633.392 428.5 627.996C422.588 622.367 416.171 617.384 411.519 610.57C401.414 595.769 407.663 579.304 408.884 563.12L409.024 561.135C409.245 557.775 409.367 553.208 407.172 550.883C404.703 548.265 398.913 547.597 395.637 546.438C387.171 543.442 378.828 539.951 370.882 535.759C363.318 531.769 355.991 527.361 349.169 522.197L345.711 519.596C340.255 515.479 334.598 510.984 330.942 505.381C330.52 504.736 331.237 503.695 332.001 504.004C338.105 506.481 343.682 510.421 349.393 513.849C349.482 513.64 349.585 513.429 349.702 513.217C356.768 500.429 359.674 486.261 358.545 471.716ZM553.528 559.331C555.96 552.662 567.044 553.177 566.602 561.101C566.263 567.189 563.679 572.683 561.315 578.211L561.063 578.803C558.623 584.562 555.805 589.969 552.433 595.247C545.99 605.337 538.443 614.701 530.382 623.538C523.074 631.55 513.482 636.449 502.429 635.635C497.772 635.292 493.071 634.107 488.99 631.781C484.143 629.017 478.879 620.718 472.695 622.728C472.097 622.922 471.539 622.046 472.056 621.631C479.195 615.882 487.298 624.796 494.133 626.944C504.432 630.179 515.001 626.602 521.63 618.276C528.551 609.583 534.921 599.85 540.738 590.385C543.692 585.579 546.387 580.591 548.715 575.45C551.064 570.261 551.598 564.622 553.528 559.331ZM536.927 518.289C536.627 517.368 537.771 516.492 538.58 517.018C543.271 520.072 547.336 524.107 551.663 527.644C556.464 531.568 561.3 535.412 566.211 539.197C573.37 544.716 565.067 554.876 558.765 548.847C550.141 540.6 540.696 529.816 536.927 518.289ZM511.172 486.009C513.078 478.66 524.349 481.691 522.707 488.954L522.653 489.175C519.542 501.172 523.973 513.385 533.432 521.163L533.78 521.445C539.764 526.234 531.286 534.606 525.361 529.863C512.426 519.511 507.045 501.926 511.172 486.009Z" fill="black"/>
<path fill-rule="evenodd" clip-rule="evenodd" d="M585.601 173.221C581.749 149.862 594.394 145.015 585.601 122.811C566.061 81.667 512.808 83.4397 473.731 80.2763C430.145 78.6023 386.03 84.3685 345.849 101.875C336.252 106.056 327.02 110.973 318.171 116.56C310.519 121.391 311.571 130.577 316.396 135.588C281.604 184.96 301.503 251.231 273.743 303.201C268.615 312.491 261.832 320.821 257.374 330.487C250.599 345.18 250.165 366.232 265.53 375.99C287.171 387.63 299.248 364.583 309.881 397.992C362.987 514.483 469.76 521.043 571.122 460.309C579.891 455.421 588.842 449.896 595.464 442.217C610.495 425.265 608.724 401.427 609.057 380.259C609.242 367.854 609.273 355.446 609.153 343.039C608.68 292.781 592.058 223.065 585.601 173.221Z" fill="#EDB98A"/>
<path fill-rule="evenodd" clip-rule="evenodd" d="M369.71 33.5074C430.91 5.68736 500.325 -4.86265 567.084 2.05735C600.035 5.46756 632.552 12.7839 663.497 24.6686L666.21 25.719C673.849 28.6654 682.083 31.5899 687.888 37.5874C694.645 44.5574 696.54 55.0974 691.71 63.7074C687.958 70.3974 681.212 75.1964 674.018 77.7574C676.552 79.8374 678.957 82.1574 681.212 84.7474C685.014 89.0874 685.304 95.2764 681.212 99.5574C673.329 107.807 663.101 113.776 652.084 116.637C653.321 122.627 652.653 129.257 649.998 135.227C642.381 152.364 620.926 154.407 604.415 153.389L603.916 153.357L602.998 163.887C602.509 169.497 599.156 173.847 593.468 174.707C593.268 174.737 593.068 174.757 592.869 174.776C601.87 207.397 607.309 241.026 612.328 274.457C614.95 291.908 617.298 309.4 619.545 326.903L620.291 332.737C622.686 351.607 625.68 370.667 626.718 389.677C627.646 406.927 624.362 423.397 613.755 437.317C604.235 449.797 591.252 459.147 577.292 466.087C545.749 481.776 512.549 493.457 477.663 498.877L475.336 499.236C461.87 501.296 447.995 503.032 434.674 499.297C422.969 496.017 410.694 487.557 413.339 473.967C414.227 469.377 420.633 469.177 422.829 472.727L423.335 473.541C425.968 477.727 428.853 481.617 433.447 483.776C438.825 486.317 445.062 487.026 450.939 487.097C467.354 487.287 484.448 483.187 500.255 479.077C529.772 471.398 560.088 458.877 584.267 439.907C594.556 431.847 602.818 421.767 605.732 408.797C609.334 392.807 606.021 375.327 604.385 359.257C601.017 326.098 597.009 293 592.78 259.939L591.931 253.327C588.37 225.687 584.627 198.037 582.85 170.237C582.112 169.227 581.613 168.077 581.413 166.817L581.135 165.007C580.894 163.457 580.854 162.037 581.024 160.727C581.034 155.707 581.174 150.717 581.463 145.696C581.512 144.797 581.553 143.897 581.583 143.007C576.374 144.157 571.125 145.087 565.856 145.877C528.814 151.467 491.194 152.867 453.853 150.087C435.222 148.696 416.732 146.307 398.3 143.317C388.919 141.797 379.57 140.117 370.25 138.237C363.514 136.887 356.918 135.057 350.292 133.337C343.456 143.307 339.764 155.577 340.483 167.627C341.291 181.377 350.432 193.847 347.867 207.897C345.46 221.046 334.219 225.123 323.12 228.38L318.4 229.747C314.768 230.809 312.131 231.834 311.474 236.207C310.346 243.717 311.733 252.167 312.023 259.717C312.372 268.647 312.83 277.577 313.041 286.507C313.15 291.127 313.329 295.767 313.32 300.387C313.31 303.667 312.821 305.907 311.554 308.026C312.532 309.257 313.409 310.587 314.188 311.997C314.438 312.457 313.819 312.946 313.451 312.567C312.462 311.537 311.413 310.607 310.306 309.776C309.748 310.467 309.099 311.167 308.34 311.917L308.281 311.837C305.906 314.207 302.134 314.437 299.189 311.917L298.416 311.246C296.261 309.353 294.78 307.776 294.181 304.647C294.151 304.487 294.12 304.327 294.101 304.167C288.622 303.977 283.054 305.276 278.124 308.007C270.311 312.337 264.813 318.507 261.56 326.127C262.857 327.647 264.374 329.007 266.14 330.147C266.389 330.317 266.17 330.687 265.9 330.557C264.094 329.707 262.478 328.657 261.031 327.427C259.863 330.427 259.045 333.647 258.546 337.057C256.79 349.097 259.923 363.807 270.78 370.667C275.48 373.637 280.849 375.247 286.417 375.267C289.13 375.276 291.476 374.817 294.111 374.167C295.897 373.727 297.673 373.087 299.539 373.087C301.136 373.087 302.613 373.487 303.98 374.287L303.601 374.321C302.679 374.407 302.856 374.446 304.139 374.446C308.131 374.617 310.415 378.677 308.58 382.207L308.339 382.753C308.289 382.863 308.246 382.954 308.212 383.026L308.067 383.963C308.052 384.052 308.037 384.143 308.021 384.237L307.966 384.427C307.956 384.457 307.945 384.487 307.931 384.517L313.918 393.666C321.258 404.857 328.761 416.005 337.299 426.227C343.287 433.397 349.633 440.427 356.339 446.937C362.366 452.787 369.591 455.607 376.417 460.207C380.06 462.647 381.127 467.757 377.815 471.047C368.094 480.717 354.333 473.037 346.36 465.177C338.816 457.727 332.3 448.767 326.682 439.797C316.713 423.847 308.78 406.887 305.307 388.477C303.86 389.807 302.014 390.637 300.148 391.287C296.406 392.587 292.285 393.127 288.333 393.267C280.759 393.517 273.175 391.677 266.359 388.417C238.628 375.167 234.557 335.487 251.511 312.087C249.225 305.444 247.948 298.235 246.561 292.088L245.93 289.34C238.92 258.647 234.212 226.333 246.641 196.257C248.238 192.377 250.034 188.597 252.159 184.977C253.866 182.067 256.8 178.967 257.608 175.657C259.404 168.387 248.317 160.747 245.084 154.977C241.282 148.207 240.744 140.217 245.923 134.026C246.581 133.247 247.299 132.526 248.078 131.897C243.168 122.977 242.939 111.757 249.405 102.957C253.656 97.1574 260.142 93.0974 267.228 91.8674C271.558 91.1174 276.767 91.3974 281.527 92.7374C307.591 68.4874 337.329 48.2274 369.71 33.5074ZM269.622 336.937C276.578 330.787 284.262 327.567 293.742 328.377C303.272 329.196 314.748 333.147 320.345 341.337C324.766 347.807 315.755 357.297 309.269 352.437C303.362 348.007 299.419 343.007 292.085 340.627C285.498 338.497 277.346 337.127 270.45 338.347C269.692 338.477 268.934 337.537 269.622 336.937Z" fill="black"/>
<path fill-rule="evenodd" clip-rule="evenodd" d="M506.587 426.926C499.864 424.184 493.866 419.609 489.481 413.766C487.957 411.734 487.561 409.589 487.881 407.627C488.241 405.421 489.546 403.421 491.326 402.08C493.112 400.735 495.345 400.071 497.504 400.41C499.381 400.704 501.248 401.731 502.727 403.862L503.035 404.288C505.642 407.815 509.04 410.708 512.91 412.574C516.641 414.371 520.814 415.21 525.132 414.723C533.356 413.794 539.024 409.346 545.049 403.306C545.796 402.544 546.543 401.757 547.294 400.958C547.768 400.234 548.426 399.768 549.157 399.524C549.968 399.253 550.886 399.268 551.726 399.562C552.537 399.844 553.262 400.381 553.747 401.094C554.209 401.772 554.471 402.61 554.386 403.574C553.835 409.833 550.562 415.419 545.914 419.805C540.752 424.677 533.908 428.047 527.466 429.229C520.368 430.531 513.136 429.598 506.587 426.926ZM530.814 330.367C538.366 334.957 549.872 345.66 541.748 357.039C532.186 367.073 518.418 355.569 511.634 350.366C505.343 346.334 498.275 356.704 504.112 361.412C553.136 397.708 573.031 331.567 534.634 324.97C530.406 324.243 528.836 328.947 530.814 330.367ZM442.963 288.146C443.798 277.79 459.57 275.438 461.139 285.686C462.544 294.866 460.89 303.299 456.755 311.564C452.804 319.46 442.874 315.776 442.123 308.586C441.116 298.948 442.444 294.588 442.963 288.146ZM563.027 283.561C565.226 280.681 568.401 278.715 572.205 279.826C584.09 283.299 580.587 300.172 576.413 308.385C574.145 312.845 566.814 313.976 563.501 310.049C558.101 303.645 555.515 290.856 562.38 284.548C562.566 284.222 562.773 283.893 563.027 283.561ZM456.588 242.83L458.465 242.502C464.273 241.497 471.494 240.532 475.603 245.201C477.782 247.677 478.532 252.279 475.603 254.649C470.451 258.819 464.755 257.203 458.581 257.556C453.493 257.848 448.603 258.69 443.702 260.091C432.95 263.164 424.189 268.774 415.006 274.934C413.801 275.742 412.571 274.201 413.146 273.074C418.447 262.691 428.72 254.162 439.01 248.963C444.502 246.188 450.512 243.886 456.588 242.83ZM552.193 238.179L553.63 238.473C569.267 241.742 589.583 248.271 596.988 263.63C597.271 265.802 596.972 266.268 596.73 266.572L596.649 266.673C596.45 266.933 596.29 267.291 595.349 267.586C595.088 267.524 594.824 267.458 594.557 267.388C591.163 266.499 588.477 265.273 585.877 264.002L583.058 262.613C579.788 261.009 576.488 259.464 572.992 258.323C565.53 255.889 557.854 254.175 550.06 253.259C548.37 253.061 546.744 252.491 545.46 251.514C544.242 250.586 543.311 249.302 542.887 247.595C542.337 245.386 542.495 243.714 543.68 241.721C544.572 240.224 545.847 239.187 547.311 238.591C548.804 237.984 550.503 237.841 552.193 238.179Z" fill="black"/>
</svg>
